<svg width="515" height="615" viewBox="0 0 515 615" fill="none" xmlns="http://www.w3.org/2000/svg">
<g filter="url(#filter0_f_1185_4028)">
<circle cx="474" cy="243" r="21" fill="#B6FA96" fill-opacity="0.6"/>
</g>
<g filter="url(#filter1_f_1185_4028)">
<circle cx="409.5" cy="84.5" r="44.5" fill="#B6FA96" fill-opacity="0.7"/>
</g>
<g filter="url(#filter2_f_1185_4028)">
<circle cx="275" cy="256" r="192" fill="white" fill-opacity="0.15"/>
</g>
<g filter="url(#filter3_f_1185_4028)">
<circle cx="62.8279" cy="232.816" r="42.8279" fill="white" fill-opacity="0.5"/>
</g>
<g filter="url(#filter4_f_1185_4028)">
<path fill-rule="evenodd" clip-rule="evenodd" d="M73.2524 274.366C73.0659 271.435 72.9712 268.478 72.9712 265.5C72.9712 241.599 79.0693 219.123 89.7945 199.542C99.4713 207.394 105.656 219.383 105.656 232.816C105.656 252.873 91.8674 269.71 73.2524 274.366Z" fill="#B6FA96" fill-opacity="0.6"/>
</g>
<line x1="298.503" y1="189.984" x2="300.426" y2="437.941" stroke="url(#paint0_linear_1185_4028)" stroke-width="0.5"/>
<g filter="url(#filter5_f_1185_4028)">
<path d="M331.657 262.917V243.288H322.949C322.91 244.413 322.871 245.559 322.832 246.726C322.812 247.893 322.793 249.039 322.773 250.165C322.773 250.79 322.754 251.54 322.715 252.415C322.695 253.269 322.666 254.144 322.627 255.04C322.588 255.936 322.519 256.791 322.421 257.603C322.324 258.416 322.187 259.083 322.011 259.604C321.679 260.667 321.112 261.51 320.31 262.136C319.509 262.761 318.356 263.094 316.851 263.136V260.448C317.574 260.448 318.18 260.208 318.668 259.729C319.177 259.229 319.509 258.614 319.665 257.885C319.88 257.135 320.007 256.207 320.046 255.103C320.105 253.978 320.154 252.915 320.193 251.915C320.232 250.081 320.271 248.237 320.31 246.383C320.369 244.507 320.398 242.653 320.398 240.819H334.208V262.917H331.657Z" fill="white"/>
</g>
<g filter="url(#filter6_f_1185_4028)">
<path d="M330.782 255.515V239.157H323.318C323.284 240.095 323.251 241.05 323.217 242.022C323.201 242.995 323.184 243.95 323.167 244.887C323.167 245.408 323.15 246.034 323.117 246.763C323.1 247.475 323.075 248.204 323.041 248.951C323.008 249.697 322.949 250.409 322.866 251.087C322.782 251.764 322.665 252.319 322.514 252.754C322.229 253.639 321.743 254.342 321.056 254.863C320.369 255.384 319.381 255.662 318.091 255.697V253.457C318.71 253.457 319.23 253.257 319.649 252.858C320.084 252.441 320.369 251.929 320.503 251.321C320.687 250.696 320.796 249.923 320.83 249.003C320.88 248.065 320.922 247.18 320.956 246.346C320.989 244.818 321.023 243.281 321.056 241.736C321.106 240.173 321.131 238.628 321.131 237.1H332.968V255.515H330.782Z" fill="white"/>
</g>
<g filter="url(#filter7_f_1185_4028)">
<path d="M303.213 181.308H305.638V190.013H309.124C310.09 190.013 311.01 190.092 311.884 190.251C312.776 190.39 313.557 190.679 314.226 191.116C314.914 191.533 315.462 192.129 315.871 192.904C316.28 193.66 316.484 194.653 316.484 195.886C316.484 197.178 316.289 198.231 315.899 199.046C315.509 199.841 314.97 200.487 314.282 200.983C313.613 201.48 312.823 201.838 311.912 202.057C311.001 202.275 310.034 202.385 309.012 202.385H303.213V181.308ZM319.384 202.385V181.308H321.81V202.385H319.384ZM305.638 200.03H308.705C309.375 200.03 310.025 199.99 310.657 199.91C311.308 199.811 311.884 199.622 312.386 199.344C312.888 199.046 313.287 198.638 313.585 198.122C313.882 197.605 314.031 196.919 314.031 196.065C314.031 195.21 313.882 194.544 313.585 194.067C313.287 193.57 312.897 193.203 312.414 192.964C311.93 192.706 311.373 192.547 310.741 192.487C310.127 192.408 309.495 192.368 308.845 192.368H305.638V200.03Z" fill="white"/>
</g>
<g filter="url(#filter8_f_1185_4028)">
<path d="M257.339 197.425H258.957V203.058H261.28C261.924 203.058 262.538 203.109 263.12 203.212C263.715 203.302 264.236 203.489 264.682 203.772C265.14 204.042 265.506 204.428 265.778 204.929C266.051 205.418 266.187 206.061 266.187 206.858C266.187 207.694 266.057 208.376 265.797 208.903C265.537 209.417 265.177 209.835 264.719 210.157C264.273 210.478 263.746 210.71 263.139 210.851C262.532 210.993 261.887 211.063 261.206 211.063H257.339V197.425ZM268.12 211.063V197.425H269.738V211.063H268.12ZM258.957 209.539H261.001C261.447 209.539 261.881 209.514 262.302 209.462C262.736 209.398 263.12 209.276 263.455 209.096C263.789 208.903 264.056 208.639 264.254 208.305C264.452 207.971 264.551 207.527 264.551 206.974C264.551 206.421 264.452 205.99 264.254 205.681C264.056 205.36 263.796 205.122 263.473 204.968C263.151 204.801 262.779 204.698 262.358 204.659C261.949 204.608 261.528 204.582 261.094 204.582H258.957V209.539Z" fill="white"/>
</g>
<g filter="url(#filter9_f_1185_4028)">
<circle cx="174.271" cy="264.376" r="11.1584" fill="white"/>
</g>
<g filter="url(#filter10_f_1185_4028)">
<line x1="222.875" y1="207.342" x2="225.277" y2="517.287" stroke="url(#paint1_linear_1185_4028)" stroke-width="0.5"/>
</g>
<g filter="url(#filter11_f_1185_4028)">
<line x1="263.789" y1="254.455" x2="266.191" y2="564.401" stroke="url(#paint2_linear_1185_4028)" stroke-width="0.5"/>
</g>
<g filter="url(#filter12_f_1185_4028)">
<line x1="322.06" y1="254.455" x2="324.463" y2="564.401" stroke="url(#paint3_linear_1185_4028)" stroke-width="0.5"/>
</g>
<g filter="url(#filter13_f_1185_4028)">
<circle cx="349.086" cy="403.235" r="13.638" fill="#B6FA96"/>
</g>
<g filter="url(#filter14_f_1185_4028)">
<circle cx="148.235" cy="331.326" r="11.1584" fill="#B6FA96"/>
</g>
<g filter="url(#filter15_f_1185_4028)">
<line x1="163.363" y1="278.012" x2="165.766" y2="587.957" stroke="url(#paint4_linear_1185_4028)" stroke-width="0.5"/>
</g>
<g filter="url(#filter16_f_1185_4028)">
<line x1="158.404" y1="281.731" x2="160.806" y2="591.677" stroke="url(#paint5_linear_1185_4028)" stroke-width="0.5"/>
</g>
<g filter="url(#filter17_f_1185_4028)">
<line x1="351.816" y1="244.537" x2="354.218" y2="554.482" stroke="url(#paint6_linear_1185_4028)" stroke-width="0.5"/>
</g>
<g filter="url(#filter18_f_1185_4028)">
<line x1="346.856" y1="248.256" x2="349.259" y2="558.201" stroke="url(#paint7_linear_1185_4028)" stroke-width="0.5"/>
</g>
<g filter="url(#filter19_f_1185_4028)">
<path d="M163.66 236.45C163.101 235.907 162.664 235.277 162.348 234.56C162.05 233.821 161.892 233.018 161.873 232.149H164.302C164.339 232.822 164.581 233.474 165.028 234.104C165.307 234.473 165.632 234.766 166.004 234.983C166.377 235.201 166.758 235.374 167.149 235.505C167.558 235.613 167.958 235.689 168.349 235.733C168.74 235.755 169.084 235.765 169.382 235.765C169.847 235.765 170.359 235.722 170.917 235.635C171.494 235.548 172.024 235.364 172.508 235.081C173.011 234.799 173.429 234.386 173.764 233.843C174.099 233.278 174.267 232.54 174.267 231.628C174.267 230.715 174.099 229.988 173.764 229.445C173.448 228.88 173.057 228.467 172.592 228.206C172.108 227.924 171.559 227.761 170.945 227.718C170.331 227.674 169.782 227.653 169.298 227.653H166.898V225.111H168.321C168.861 225.111 169.419 225.079 169.996 225.013C170.592 224.927 171.141 224.731 171.643 224.427C172.164 224.123 172.601 223.699 172.955 223.156C173.308 222.613 173.495 221.951 173.513 221.169C173.513 220.387 173.383 219.746 173.122 219.246C172.88 218.747 172.546 218.356 172.117 218.074C171.689 217.791 171.224 217.607 170.722 217.52C170.238 217.411 169.754 217.357 169.27 217.357C168.638 217.357 168.024 217.444 167.428 217.617C166.833 217.791 166.321 218.074 165.893 218.465C165.576 218.769 165.316 219.116 165.111 219.507C164.925 219.898 164.832 220.343 164.832 220.843H162.404V220.582C162.404 220.104 162.497 219.583 162.683 219.018C162.869 218.454 163.101 217.943 163.381 217.487C164.069 216.51 164.944 215.815 166.004 215.402C167.065 214.989 168.21 214.783 169.438 214.783C170.275 214.783 171.075 214.891 171.838 215.109C172.62 215.304 173.308 215.641 173.904 216.119C174.499 216.575 174.974 217.183 175.328 217.943C175.7 218.703 175.886 219.627 175.886 220.713C175.886 221.125 175.849 221.56 175.774 222.016C175.718 222.472 175.588 222.928 175.383 223.384C175.179 223.841 174.881 224.286 174.49 224.72C174.118 225.155 173.616 225.546 172.983 225.893C173.56 226.023 174.081 226.262 174.546 226.61C175.03 226.957 175.43 227.381 175.746 227.881C176.063 228.38 176.305 228.934 176.472 229.542C176.658 230.151 176.751 230.791 176.751 231.465V231.66C176.733 232.877 176.509 233.908 176.081 234.755C175.653 235.603 175.095 236.298 174.406 236.841C173.736 237.362 172.964 237.742 172.09 237.981C171.215 238.22 170.312 238.339 169.382 238.339C168.284 238.339 167.233 238.198 166.228 237.916C165.242 237.633 164.385 237.145 163.66 236.45Z" fill="white"/>
</g>
<g filter="url(#filter20_f_1185_4028)">
<path d="M197.828 317.688H195.139L193.536 313.69H183.522L181.92 317.688H179.231L186.755 299.091H190.332L197.828 317.688ZM192.707 311.611L188.529 301.09L184.352 311.611H192.707Z" fill="white"/>
</g>
<g filter="url(#filter21_f_1185_4028)">
<path d="M277.261 259.469C276.298 259.469 275.388 259.533 274.532 259.661C273.676 259.768 272.863 259.928 272.093 260.142C271.344 260.334 270.627 260.548 269.942 260.783V258.155C270.584 257.92 271.258 257.717 271.964 257.546C272.671 257.353 273.462 257.204 274.34 257.097C275.217 256.99 276.212 256.937 277.325 256.937C279.123 256.937 280.706 257.214 282.076 257.77C283.467 258.325 284.622 259.127 285.542 260.174C286.462 261.221 287.158 262.471 287.629 263.923C288.1 265.355 288.335 266.968 288.335 268.763C288.335 270.536 288.11 272.15 287.661 273.603C287.211 275.034 286.548 276.263 285.671 277.288C284.815 278.314 283.734 279.104 282.429 279.66C281.145 280.215 279.668 280.493 277.999 280.493C275.731 280.493 273.89 280.012 272.478 279.051C271.087 278.068 270.071 276.701 269.429 274.949C268.808 273.175 268.498 271.103 268.498 268.731V267.641H285.286C285.179 265.911 284.815 264.436 284.194 263.218C283.595 262.001 282.718 261.071 281.562 260.43C280.428 259.789 278.994 259.469 277.261 259.469ZM277.999 277.961C279.411 277.961 280.642 277.662 281.69 277.064C282.739 276.466 283.574 275.59 284.194 274.436C284.815 273.261 285.179 271.84 285.286 270.173H271.579C271.579 271.776 271.783 273.164 272.189 274.34C272.596 275.493 273.27 276.391 274.211 277.032C275.153 277.651 276.416 277.961 277.999 277.961Z" fill="white"/>
</g>
<g filter="url(#filter22_f_1185_4028)">
<path d="M224.317 294.131V288.209H222.386L219.471 294.131H217.665L221.098 287.245L217.683 280.493H219.4L222.422 286.685H224.317V280.493H225.873V286.685H227.804L230.826 280.493H232.507L229.092 287.245L232.543 294.131H230.719L227.804 288.209H225.873V294.131H224.317Z" fill="white"/>
</g>
<g filter="url(#filter23_f_1185_4028)">
<path d="M232.543 183.787V172.629H234.423L237.546 178.768L240.625 172.629H242.462V183.787H241.204V174.018L237.806 180.883H237.228L233.801 174.018V183.787H232.543Z" fill="white"/>
</g>
<path d="M318.091 197.425H316.836L316.088 195.026H311.415L310.667 197.425H309.412L312.923 186.267H314.592L318.091 197.425ZM315.701 193.78L313.751 187.466L311.802 193.78H315.701Z" fill="white"/>
<line x1="226.594" y1="248.258" x2="226.594" y2="558.213" stroke="url(#paint8_linear_1185_4028)" stroke-width="0.5"/>
<line x1="177.001" y1="304.05" x2="177.001" y2="614.005" stroke="url(#paint9_linear_1185_4028)" stroke-width="0.5"/>
<line x1="216.675" y1="249.498" x2="216.675" y2="559.452" stroke="url(#paint10_linear_1185_4028)" stroke-width="0.5"/>
<line x1="236.512" y1="249.498" x2="236.512" y2="559.452" stroke="url(#paint11_linear_1185_4028)" stroke-width="0.5"/>
<line x1="322.06" y1="170.147" x2="324.463" y2="480.093" stroke="url(#paint12_linear_1185_4028)" stroke-width="0.5"/>
<line x1="309.662" y1="197.423" x2="312.065" y2="507.369" stroke="url(#paint13_linear_1185_4028)" stroke-width="0.5"/>
<g filter="url(#filter24_f_1185_4028)">
<line x1="258.829" y1="203.623" x2="261.232" y2="513.568" stroke="url(#paint14_linear_1185_4028)" stroke-width="0.5"/>
</g>
<path d="M297.975 191.226V187.867H296.404V181.917H289.924V187.867H288.335V175.109H289.924V180.505H296.404V175.109H297.975V186.437H299.493V191.226H297.975Z" fill="white"/>
<g filter="url(#filter25_f_1185_4028)">
<path d="M258.697 322.647V317.479H256.253V308.325H246.173V317.479H243.701V297.851H246.173V306.153H256.253V297.851H258.697V315.28H261.059V322.647H258.697Z" fill="white"/>
</g>
<line x1="318.341" y1="294.131" x2="318.341" y2="542.095" stroke="url(#paint15_linear_1185_4028)" stroke-width="0.5"/>
<g filter="url(#filter26_f_1185_4028)">
<path d="M195.07 268.095V264.736H193.499V258.785H187.019V264.736H185.43V251.977H187.019V257.374H193.499V251.977H195.07V263.306H196.588V268.095H195.07Z" fill="white"/>
</g>
<path d="M215.978 299.09V295.473H214.232V289.065H207.033V295.473H205.267V281.733H207.033V287.545H214.232V281.733H215.978V293.933H217.665V299.09H215.978Z" fill="white"/>
<path d="M157.321 278.014H155.674V265.615H157.321V271.332H159.309L163.662 265.615H165.555L160.747 271.771L165.593 278.014H163.643L159.441 272.718H157.321V278.014Z" fill="white"/>
<path d="M254.24 175.109H252.38V156.511H254.24V175.109Z" fill="white"/>
<g filter="url(#filter27_f_1185_4028)">
<path d="M218.905 194.946H216.425V170.149H218.905V194.946Z" fill="white"/>
</g>
<g filter="url(#filter28_f_1185_4028)">
<path d="M259.819 229.661H258.026L256.958 226.995H250.282L249.214 229.661H247.421L252.437 217.262H254.822L259.819 229.661ZM256.405 225.61L253.62 218.595L250.835 225.61H256.405Z" fill="white"/>
</g>
<g filter="url(#filter29_f_1185_4028)">
<path d="M288.335 317.688H285.107L283.185 312.89H271.168L269.245 317.688H266.018L275.048 295.371H279.339L288.335 317.688ZM282.189 310.396L277.176 297.77L272.164 310.396H282.189Z" fill="white"/>
</g>
<path d="M309.61 201.29C308.226 201.29 306.919 201.388 305.688 201.583C304.458 201.746 303.289 201.991 302.182 202.317C301.105 202.611 300.074 202.937 299.09 203.296V199.284C300.013 198.926 300.982 198.616 301.997 198.355C303.012 198.061 304.15 197.833 305.412 197.67C306.673 197.507 308.103 197.425 309.703 197.425C312.287 197.425 314.563 197.849 316.532 198.697C318.531 199.545 320.192 200.768 321.515 202.366C322.838 203.964 323.838 205.872 324.514 208.089C325.191 210.274 325.53 212.737 325.53 215.476C325.53 218.183 325.207 220.645 324.561 222.863C323.915 225.048 322.961 226.923 321.7 228.488C320.469 230.054 318.916 231.26 317.039 232.108C315.194 232.956 313.071 233.38 310.672 233.38C307.411 233.38 304.766 232.646 302.735 231.179C300.736 229.679 299.275 227.591 298.352 224.917C297.46 222.21 297.014 219.047 297.014 215.427V213.764H321.146C320.992 211.122 320.469 208.872 319.577 207.013C318.716 205.154 317.455 203.736 315.794 202.757C314.163 201.779 312.102 201.29 309.61 201.29ZM310.672 229.516C312.702 229.516 314.471 229.059 315.978 228.146C317.485 227.233 318.685 225.896 319.577 224.135C320.469 222.341 320.992 220.172 321.146 217.628H301.443C301.443 220.074 301.736 222.194 302.32 223.988C302.904 225.749 303.873 227.119 305.227 228.097C306.58 229.043 308.395 229.516 310.672 229.516Z" fill="#B6FA96"/>
<path d="M145.94 224.701V218.502H140.428V215.622H145.94V214.746L137.077 198.665H140.726L147.615 211.464L154.542 198.665H158.154L149.291 214.6V215.622H154.765V218.502H149.291V224.701H145.94Z" fill="#B6FA96"/>
<path d="M272.217 222.222V212.806C273.023 212.806 273.627 212.657 274.029 212.36C274.455 212.039 274.779 211.615 275.003 211.088C275.271 210.401 275.484 209.507 275.64 208.408C275.819 207.285 275.954 206.14 276.043 204.971C276.2 202.681 276.311 200.39 276.379 198.099C276.446 195.808 276.49 193.517 276.513 191.226H291.682V212.806H294.534V222.222H291.614V215.521H275.137V222.222H272.217ZM288.762 212.806V193.941H279.365L279.063 203.391C279.041 203.941 279.007 204.593 278.963 205.349C278.94 206.105 278.873 206.907 278.761 207.755C278.672 208.58 278.538 209.427 278.359 210.298C278.18 211.168 277.934 212.004 277.62 212.806H288.762Z" fill="white"/>
<g filter="url(#filter30_f_1185_4028)">
<path d="M338.512 217.262V212.956H336.902L334.473 217.262H332.968L335.829 212.254L332.983 207.344H334.414L336.932 211.847H338.512V207.344H339.808V211.847H341.418L343.936 207.344H345.337L342.49 212.254L345.366 217.262H343.846L341.418 212.956H339.808V217.262H338.512Z" fill="white"/>
</g>
<path d="M228.626 228.567C228.3 228.252 228.045 227.888 227.861 227.473C227.687 227.045 227.595 226.58 227.584 226.077H229C229.022 226.467 229.163 226.844 229.424 227.208C229.587 227.422 229.776 227.592 229.994 227.718C230.211 227.844 230.433 227.944 230.661 228.02C230.9 228.082 231.133 228.126 231.361 228.152C231.589 228.164 231.79 228.17 231.964 228.17C232.235 228.17 232.534 228.145 232.859 228.095C233.196 228.045 233.505 227.938 233.787 227.774C234.081 227.611 234.325 227.372 234.52 227.058C234.716 226.731 234.813 226.303 234.813 225.775C234.813 225.247 234.716 224.825 234.52 224.511C234.336 224.184 234.108 223.945 233.836 223.794C233.554 223.631 233.234 223.536 232.876 223.511C232.517 223.486 232.197 223.474 231.915 223.474H230.515V222.002H231.345C231.66 222.002 231.986 221.983 232.322 221.946C232.669 221.895 232.99 221.782 233.283 221.606C233.587 221.43 233.842 221.185 234.048 220.87C234.254 220.556 234.363 220.173 234.374 219.72C234.374 219.267 234.298 218.896 234.146 218.607C234.005 218.318 233.809 218.091 233.56 217.928C233.31 217.764 233.038 217.657 232.745 217.607C232.463 217.544 232.181 217.513 231.899 217.513C231.53 217.513 231.171 217.563 230.824 217.664C230.477 217.764 230.178 217.928 229.928 218.154C229.744 218.33 229.592 218.531 229.473 218.758C229.364 218.984 229.31 219.242 229.31 219.531H227.893V219.38C227.893 219.104 227.947 218.802 228.056 218.475C228.164 218.148 228.3 217.852 228.463 217.588C228.865 217.022 229.375 216.62 229.994 216.381C230.612 216.142 231.28 216.023 231.996 216.023C232.485 216.023 232.952 216.086 233.397 216.211C233.853 216.324 234.254 216.519 234.602 216.796C234.949 217.06 235.226 217.412 235.432 217.852C235.649 218.293 235.758 218.827 235.758 219.456C235.758 219.695 235.736 219.946 235.693 220.21C235.66 220.474 235.584 220.738 235.465 221.002C235.345 221.267 235.172 221.524 234.944 221.776C234.726 222.027 234.433 222.254 234.064 222.455C234.401 222.53 234.705 222.669 234.976 222.87C235.258 223.071 235.492 223.316 235.676 223.606C235.861 223.895 236.002 224.216 236.1 224.568C236.208 224.92 236.262 225.291 236.262 225.681V225.794C236.252 226.498 236.121 227.095 235.872 227.586C235.622 228.076 235.296 228.479 234.895 228.793C234.504 229.095 234.053 229.315 233.543 229.453C233.033 229.591 232.507 229.661 231.964 229.661C231.323 229.661 230.71 229.579 230.124 229.415C229.549 229.252 229.049 228.969 228.626 228.567Z" fill="white"/>
<g filter="url(#filter31_f_1185_4028)">
<path d="M332.968 194.946V181.308H334.572V186.342C334.735 186.085 334.943 185.847 335.195 185.629C335.446 185.41 335.71 185.23 335.987 185.089C336.264 184.947 336.566 184.844 336.893 184.78C337.232 184.703 337.559 184.664 337.874 184.664C338.591 184.664 339.188 184.786 339.666 185.031C340.157 185.262 340.546 185.59 340.836 186.014C341.138 186.426 341.345 186.921 341.458 187.5C341.584 188.066 341.647 188.683 341.647 189.352V194.946H340.043V189.853C340.043 189.39 340.018 188.94 339.968 188.503C339.918 188.053 339.804 187.654 339.628 187.307C339.452 186.96 339.201 186.677 338.874 186.458C338.547 186.227 338.1 186.111 337.534 186.111C337.069 186.111 336.635 186.233 336.232 186.477C335.842 186.709 335.528 187.005 335.289 187.365C335 187.763 334.805 188.207 334.704 188.696C334.616 189.184 334.572 189.686 334.572 190.2V194.946H332.968Z" fill="white"/>
</g>
<path d="M320.57 171.389V157.751H322.117V168.766L328.853 157.751H330.489V171.389H328.942V160.471L322.188 171.389H320.57Z" fill="white"/>
<g filter="url(#filter32_f_1185_4028)">
<path d="M269.118 159.179C270.118 159.179 270.917 158.954 271.517 158.503C272.117 158.031 272.439 157.367 272.484 156.511H275.25C275.206 158.132 274.65 159.393 273.584 160.293C272.539 161.171 271.051 161.61 269.118 161.61C267.185 161.61 265.685 161.171 264.618 160.293C263.574 159.393 263.03 158.132 262.985 156.511H265.752C265.796 157.367 266.118 158.031 266.718 158.503C267.318 158.954 268.118 159.179 269.118 159.179ZM259.819 187.507V163.636H262.719V182.915L275.35 163.636H278.416V187.507H275.517V168.396L262.852 187.507H259.819Z" fill="white"/>
</g>
<g filter="url(#filter33_f_1185_4028)">
<path d="M238.943 264.376H237.502V251.977H238.943V257.694H240.682L244.492 251.977H246.148L241.941 258.133L246.181 264.376H244.475L240.798 259.08H238.943V264.376Z" fill="white"/>
</g>
<g filter="url(#filter34_f_1185_4028)">
<path d="M152.567 222.222H150.715V206.104H152.567V213.536H154.803L159.701 206.104H161.831L156.422 214.106L161.873 222.222H159.68L154.952 215.337H152.567V222.222Z" fill="white"/>
</g>
<path d="M186.452 186.145V175.241H181.476C181.454 175.866 181.431 176.502 181.409 177.151C181.398 177.799 181.387 178.436 181.375 179.061C181.375 179.408 181.364 179.825 181.342 180.311C181.331 180.786 181.314 181.272 181.292 181.77C181.269 182.267 181.23 182.742 181.174 183.193C181.118 183.645 181.04 184.015 180.94 184.305C180.75 184.895 180.426 185.364 179.968 185.711C179.51 186.059 178.851 186.244 177.991 186.267V184.774C178.404 184.774 178.75 184.64 179.03 184.374C179.32 184.096 179.51 183.755 179.599 183.35C179.722 182.933 179.795 182.418 179.817 181.804C179.851 181.179 179.879 180.589 179.901 180.033C179.923 179.014 179.946 177.99 179.968 176.96C180.001 175.918 180.018 174.887 180.018 173.869H187.91V186.145H186.452Z" fill="white"/>
<path d="M167.348 204.159H174.996V197.425H176.751V212.303H174.996V205.843H167.348V212.303H165.593V197.425H167.348V204.159Z" fill="white"/>
<g filter="url(#filter35_f_1185_4028)">
<path d="M305.088 271.814C303.334 271.814 301.803 271.537 300.493 270.981C299.182 270.405 298.084 269.623 297.196 268.635C296.309 267.647 295.643 266.475 295.2 265.116C294.756 263.758 294.534 262.277 294.534 260.672C294.534 259.066 294.756 257.585 295.2 256.227C295.643 254.848 296.309 253.665 297.196 252.677C298.084 251.689 299.182 250.918 300.493 250.362C301.803 249.786 303.334 249.498 305.088 249.498C306.821 249.498 308.342 249.786 309.652 250.362C310.962 250.918 312.061 251.689 312.949 252.677C313.836 253.665 314.502 254.848 314.945 256.227C315.389 257.585 315.611 259.066 315.611 260.672C315.611 262.277 315.389 263.758 314.945 265.116C314.502 266.475 313.836 267.647 312.949 268.635C312.061 269.623 310.962 270.405 309.652 270.981C308.342 271.537 306.821 271.814 305.088 271.814ZM305.088 251.936C303.757 251.936 302.605 252.173 301.634 252.646C300.662 253.099 299.859 253.727 299.225 254.529C298.591 255.332 298.115 256.268 297.798 257.338C297.482 258.387 297.323 259.499 297.323 260.672C297.323 261.844 297.471 262.956 297.767 264.005C298.084 265.055 298.559 265.981 299.193 266.783C299.827 267.586 300.63 268.224 301.602 268.697C302.595 269.15 303.757 269.376 305.088 269.376C306.419 269.376 307.571 269.15 308.543 268.697C309.515 268.224 310.307 267.596 310.92 266.814C311.554 266.012 312.019 265.086 312.315 264.036C312.632 262.987 312.79 261.865 312.79 260.672C312.79 259.478 312.632 258.357 312.315 257.307C312.019 256.237 311.554 255.311 310.92 254.529C310.286 253.727 309.483 253.099 308.511 252.646C307.539 252.173 306.398 251.936 305.088 251.936Z" fill="white"/>
</g>
<path d="M285.246 247.018C284.111 247.018 283.119 246.833 282.272 246.463C281.424 246.078 280.713 245.557 280.139 244.899C279.565 244.24 279.134 243.458 278.847 242.553C278.56 241.647 278.416 240.66 278.416 239.589C278.416 238.519 278.56 237.532 278.847 236.626C279.134 235.707 279.565 234.918 280.139 234.26C280.713 233.601 281.424 233.087 282.272 232.716C283.119 232.332 284.111 232.14 285.246 232.14C286.367 232.14 287.351 232.332 288.199 232.716C289.046 233.087 289.757 233.601 290.332 234.26C290.906 234.918 291.336 235.707 291.624 236.626C291.911 237.532 292.054 238.519 292.054 239.589C292.054 240.66 291.911 241.647 291.624 242.553C291.336 243.458 290.906 244.24 290.332 244.899C289.757 245.557 289.046 246.078 288.199 246.463C287.351 246.833 286.367 247.018 285.246 247.018ZM285.246 233.766C284.384 233.766 283.639 233.924 283.01 234.239C282.381 234.541 281.862 234.959 281.451 235.494C281.041 236.03 280.734 236.654 280.529 237.367C280.324 238.067 280.221 238.808 280.221 239.589C280.221 240.371 280.317 241.112 280.508 241.812C280.713 242.512 281.021 243.129 281.431 243.664C281.841 244.199 282.361 244.624 282.99 244.94C283.632 245.242 284.384 245.392 285.246 245.392C286.107 245.392 286.852 245.242 287.481 244.94C288.11 244.624 288.623 244.206 289.019 243.684C289.429 243.149 289.73 242.532 289.921 241.832C290.126 241.133 290.229 240.385 290.229 239.589C290.229 238.794 290.126 238.046 289.921 237.347C289.73 236.633 289.429 236.016 289.019 235.494C288.609 234.959 288.089 234.541 287.46 234.239C286.831 233.924 286.093 233.766 285.246 233.766Z" fill="white"/>
<g filter="url(#filter36_f_1185_4028)">
<path d="M209.536 162.805C208.179 162.805 207.016 163.055 206.046 163.554C205.099 164.054 204.313 164.727 203.688 165.574C203.085 166.421 202.643 167.399 202.363 168.507C202.083 169.593 201.943 170.733 201.943 171.928C201.943 173.209 202.094 174.415 202.396 175.544C202.697 176.674 203.16 177.662 203.785 178.509C204.409 179.335 205.206 179.997 206.176 180.497C207.145 180.974 208.297 181.213 209.633 181.213C211.248 181.213 212.605 180.877 213.703 180.203C214.802 179.53 215.513 178.629 215.836 177.499H218.905C218.41 179.411 217.365 180.942 215.771 182.093C214.177 183.223 212.11 183.787 209.568 183.787C207.802 183.787 206.262 183.494 204.948 182.908C203.634 182.321 202.536 181.507 201.653 180.464C200.791 179.421 200.145 178.183 199.714 176.75C199.283 175.316 199.068 173.741 199.068 172.025C199.068 170.331 199.283 168.767 199.714 167.334C200.145 165.9 200.802 164.662 201.685 163.619C202.568 162.555 203.666 161.73 204.98 161.143C206.294 160.535 207.845 160.231 209.633 160.231C210.882 160.231 212.002 160.383 212.993 160.687C214.005 160.991 214.877 161.425 215.61 161.99C216.363 162.533 216.977 163.196 217.451 163.978C217.925 164.738 218.27 165.585 218.485 166.519H215.642C215.319 165.39 214.619 164.488 213.542 163.815C212.486 163.141 211.151 162.805 209.536 162.805Z" fill="white"/>
</g>
<g filter="url(#filter37_f_1185_4028)">
<path d="M270.346 239.761C270.937 239.761 271.471 239.733 271.947 239.677C272.424 239.603 272.863 239.472 273.263 239.285C273.663 239.08 274.035 238.799 274.378 238.444C274.74 238.09 275.083 237.613 275.408 237.016L267.258 222.222H270.203L276.837 234.494L281.927 222.222H284.615C284.005 223.567 283.395 224.949 282.785 226.368C282.194 227.769 281.594 229.18 280.984 230.599C280.526 231.664 280.05 232.747 279.554 233.849C279.077 234.933 278.572 235.988 278.038 237.016C277.676 237.725 277.285 238.388 276.866 239.005C276.466 239.621 276.037 240.135 275.579 240.546C274.874 241.162 274.102 241.573 273.263 241.779C272.424 241.965 271.452 242.059 270.346 242.059V239.761Z" fill="white"/>
</g>
<g filter="url(#filter38_f_1185_4028)">
<path d="M295.774 197.425H297.391V202.546H299.714C300.359 202.546 300.972 202.593 301.555 202.686C302.149 202.768 302.67 202.938 303.116 203.195C303.574 203.44 303.94 203.791 304.213 204.247C304.485 204.691 304.622 205.276 304.622 206.001C304.622 206.761 304.491 207.38 304.231 207.859C303.971 208.327 303.612 208.707 303.153 208.999C302.707 209.292 302.18 209.502 301.573 209.631C300.966 209.759 300.322 209.824 299.64 209.824H295.774V197.425ZM306.555 209.824V197.425H308.172V209.824H306.555ZM297.391 208.438H299.436C299.882 208.438 300.315 208.415 300.737 208.368C301.17 208.31 301.555 208.199 301.889 208.035C302.224 207.859 302.49 207.62 302.688 207.316C302.887 207.012 302.986 206.609 302.986 206.106C302.986 205.603 302.887 205.211 302.688 204.931C302.49 204.639 302.23 204.422 301.908 204.282C301.586 204.13 301.214 204.037 300.792 204.001C300.384 203.955 299.962 203.931 299.528 203.931H297.391V208.438Z" fill="white"/>
</g>
<path d="M366.444 212.303H363.964V199.905H366.444V212.303Z" fill="white"/>
<path d="M337.021 222.222L331.511 228.422L336.008 233.551H337.928V238.339H336.399V234.98H335.35L329.609 228.512V234.98H328.009V222.222H329.609V228.404L335.208 222.222H337.021Z" fill="white"/>
<path d="M357.765 209.824H354.896L353.187 204.492H342.505L340.796 209.824H337.927L345.954 185.027H349.769L357.765 209.824ZM352.302 201.722L347.846 187.693L343.39 201.722H352.302Z" fill="white"/>
<g filter="url(#filter39_f_1185_4028)">
<path d="M203.853 216.515C203.191 216.515 202.565 216.559 201.977 216.647C201.388 216.72 200.829 216.829 200.3 216.976C199.785 217.107 199.292 217.253 198.821 217.414V215.616C199.263 215.455 199.726 215.316 200.211 215.199C200.697 215.068 201.241 214.966 201.844 214.892C202.448 214.819 203.132 214.783 203.897 214.783C205.133 214.783 206.221 214.973 207.163 215.353C208.119 215.733 208.914 216.281 209.546 216.998C210.179 217.714 210.657 218.569 210.981 219.563C211.304 220.543 211.466 221.647 211.466 222.875C211.466 224.088 211.312 225.192 211.003 226.186C210.694 227.165 210.238 228.006 209.634 228.708C209.046 229.409 208.303 229.95 207.406 230.33C206.523 230.71 205.508 230.9 204.36 230.9C202.801 230.9 201.536 230.572 200.565 229.914C199.608 229.241 198.909 228.306 198.468 227.107C198.041 225.893 197.828 224.475 197.828 222.853V222.107H209.37C209.296 220.923 209.046 219.914 208.619 219.081C208.207 218.248 207.604 217.612 206.81 217.173C206.03 216.734 205.044 216.515 203.853 216.515ZM204.36 229.168C205.331 229.168 206.177 228.963 206.898 228.554C207.619 228.145 208.193 227.545 208.619 226.756C209.046 225.952 209.296 224.98 209.37 223.839H199.947C199.947 224.936 200.086 225.886 200.366 226.69C200.645 227.48 201.109 228.094 201.756 228.532C202.404 228.956 203.272 229.168 204.36 229.168Z" fill="white"/>
</g>
<g filter="url(#filter40_f_1185_4028)">
<path d="M293.12 233.873C292.457 233.873 291.832 233.917 291.244 234.004C290.655 234.077 290.096 234.187 289.567 234.333C289.052 234.465 288.559 234.611 288.088 234.772V232.974C288.529 232.813 288.993 232.674 289.478 232.557C289.964 232.425 290.508 232.323 291.111 232.25C291.715 232.177 292.399 232.14 293.164 232.14C294.399 232.14 295.488 232.33 296.43 232.71C297.386 233.091 298.18 233.639 298.813 234.355C299.446 235.071 299.924 235.927 300.247 236.921C300.571 237.9 300.733 239.004 300.733 240.232C300.733 241.445 300.579 242.549 300.27 243.543C299.961 244.523 299.505 245.363 298.901 246.065C298.313 246.767 297.57 247.308 296.672 247.688C295.79 248.068 294.775 248.258 293.627 248.258C292.068 248.258 290.802 247.929 289.831 247.271C288.875 246.599 288.176 245.663 287.735 244.464C287.308 243.251 287.095 241.833 287.095 240.21V239.464H298.637C298.563 238.28 298.313 237.272 297.886 236.438C297.474 235.605 296.871 234.969 296.077 234.531C295.297 234.092 294.311 233.873 293.12 233.873ZM293.627 246.526C294.598 246.526 295.444 246.321 296.165 245.912C296.886 245.502 297.46 244.903 297.886 244.113C298.313 243.309 298.563 242.337 298.637 241.197H289.213C289.213 242.293 289.353 243.244 289.633 244.048C289.912 244.837 290.376 245.451 291.023 245.89C291.67 246.314 292.538 246.526 293.627 246.526Z" fill="white"/>
</g>
<g filter="url(#filter41_f_1185_4028)">
<path d="M208.986 250.738V243.582C209.568 243.582 210.004 243.469 210.295 243.242C210.602 242.999 210.836 242.676 210.998 242.276C211.192 241.754 211.345 241.075 211.459 240.239C211.588 239.386 211.685 238.515 211.749 237.627C211.862 235.886 211.943 234.145 211.992 232.404C212.04 230.663 212.073 228.922 212.089 227.181H223.044V243.582H225.104V250.738H222.995V245.645H211.095V250.738H208.986ZM220.935 243.582V229.244H214.149L213.931 236.426C213.915 236.844 213.89 237.34 213.858 237.915C213.842 238.489 213.793 239.099 213.713 239.743C213.648 240.37 213.551 241.014 213.422 241.675C213.292 242.337 213.115 242.972 212.888 243.582H220.935Z" fill="white"/>
</g>
<path d="M318.091 295.371V290.098C318.538 290.098 318.874 290.015 319.097 289.848C319.334 289.669 319.514 289.431 319.638 289.136C319.787 288.751 319.905 288.251 319.992 287.635C320.092 287.007 320.166 286.365 320.216 285.711C320.303 284.428 320.365 283.145 320.402 281.862C320.44 280.579 320.465 279.296 320.477 278.014H328.904V290.098H330.489V295.371H328.867V291.619H319.713V295.371H318.091ZM327.282 290.098V279.534H322.062L321.894 284.826C321.882 285.134 321.863 285.499 321.838 285.923C321.826 286.346 321.788 286.795 321.726 287.27C321.676 287.731 321.602 288.206 321.502 288.694C321.403 289.181 321.266 289.649 321.092 290.098H327.282Z" fill="white"/>
<g filter="url(#filter42_f_1185_4028)">
<path d="M346.557 248.404C346.185 248.089 345.894 247.725 345.683 247.31C345.484 246.882 345.379 246.417 345.366 245.914H346.985C347.01 246.304 347.172 246.681 347.469 247.046C347.655 247.259 347.872 247.429 348.121 247.555C348.369 247.681 348.623 247.781 348.884 247.857C349.156 247.92 349.423 247.964 349.684 247.989C349.944 248.001 350.174 248.008 350.372 248.008C350.682 248.008 351.024 247.982 351.396 247.932C351.78 247.882 352.134 247.775 352.456 247.611C352.791 247.448 353.071 247.209 353.294 246.895C353.517 246.568 353.629 246.14 353.629 245.612C353.629 245.084 353.517 244.663 353.294 244.348C353.083 244.021 352.822 243.782 352.512 243.631C352.19 243.468 351.824 243.374 351.414 243.348C351.005 243.323 350.639 243.311 350.316 243.311H348.716V241.839H349.665C350.025 241.839 350.397 241.82 350.782 241.783C351.179 241.732 351.545 241.619 351.88 241.443C352.227 241.267 352.518 241.022 352.754 240.708C352.99 240.393 353.114 240.01 353.126 239.557C353.126 239.104 353.04 238.733 352.866 238.444C352.705 238.155 352.481 237.928 352.196 237.765C351.911 237.601 351.6 237.495 351.265 237.444C350.943 237.381 350.62 237.35 350.298 237.35C349.876 237.35 349.467 237.4 349.07 237.501C348.673 237.601 348.331 237.765 348.046 237.991C347.835 238.167 347.662 238.369 347.525 238.595C347.401 238.821 347.339 239.079 347.339 239.368H345.72V239.217C345.72 238.941 345.782 238.639 345.906 238.312C346.03 237.985 346.185 237.689 346.371 237.425C346.83 236.859 347.413 236.457 348.121 236.218C348.828 235.979 349.591 235.86 350.409 235.86C350.968 235.86 351.501 235.923 352.01 236.048C352.531 236.162 352.99 236.356 353.387 236.633C353.784 236.897 354.1 237.249 354.336 237.689C354.584 238.13 354.708 238.664 354.708 239.293C354.708 239.532 354.683 239.783 354.634 240.047C354.596 240.311 354.51 240.576 354.373 240.84C354.237 241.104 354.038 241.361 353.778 241.613C353.53 241.864 353.195 242.091 352.773 242.292C353.157 242.368 353.505 242.506 353.815 242.707C354.137 242.908 354.404 243.153 354.615 243.443C354.826 243.732 354.987 244.053 355.099 244.405C355.223 244.757 355.285 245.128 355.285 245.518V245.631C355.273 246.335 355.124 246.932 354.838 247.423C354.553 247.913 354.181 248.316 353.722 248.63C353.275 248.932 352.76 249.152 352.177 249.29C351.594 249.429 350.993 249.498 350.372 249.498C349.64 249.498 348.939 249.416 348.269 249.253C347.612 249.089 347.041 248.806 346.557 248.404Z" fill="white"/>
</g>
<g filter="url(#filter43_f_1185_4028)">
<path d="M144.467 262.042C144.095 261.727 143.803 261.363 143.592 260.948C143.394 260.52 143.289 260.055 143.276 259.552H144.895C144.92 259.942 145.081 260.319 145.379 260.684C145.565 260.897 145.782 261.067 146.03 261.193C146.278 261.319 146.533 261.419 146.793 261.495C147.066 261.558 147.333 261.602 147.593 261.627C147.854 261.639 148.083 261.646 148.282 261.646C148.592 261.646 148.933 261.62 149.305 261.57C149.69 261.52 150.044 261.413 150.366 261.249C150.701 261.086 150.98 260.847 151.204 260.533C151.427 260.206 151.538 259.778 151.538 259.25C151.538 258.722 151.427 258.301 151.204 257.986C150.993 257.659 150.732 257.42 150.422 257.269C150.099 257.106 149.733 257.012 149.324 256.986C148.915 256.961 148.549 256.949 148.226 256.949H146.626V255.477H147.575C147.935 255.477 148.307 255.458 148.691 255.421C149.088 255.37 149.454 255.257 149.789 255.081C150.137 254.905 150.428 254.66 150.664 254.346C150.9 254.031 151.024 253.648 151.036 253.195C151.036 252.742 150.949 252.371 150.776 252.082C150.614 251.793 150.391 251.566 150.106 251.403C149.82 251.239 149.51 251.133 149.175 251.082C148.853 251.019 148.53 250.988 148.207 250.988C147.786 250.988 147.376 251.038 146.979 251.139C146.582 251.239 146.241 251.403 145.956 251.629C145.745 251.805 145.571 252.007 145.435 252.233C145.311 252.459 145.249 252.717 145.249 253.006H143.63V252.855C143.63 252.579 143.692 252.277 143.816 251.95C143.94 251.623 144.095 251.327 144.281 251.063C144.74 250.497 145.323 250.095 146.03 249.856C146.737 249.617 147.5 249.498 148.319 249.498C148.877 249.498 149.411 249.561 149.92 249.686C150.441 249.8 150.9 249.994 151.297 250.271C151.694 250.535 152.01 250.887 152.246 251.327C152.494 251.768 152.618 252.302 152.618 252.931C152.618 253.17 152.593 253.421 152.543 253.685C152.506 253.949 152.419 254.214 152.283 254.478C152.146 254.742 151.948 254.999 151.687 255.251C151.439 255.502 151.104 255.729 150.682 255.93C151.067 256.006 151.414 256.144 151.725 256.345C152.047 256.546 152.314 256.791 152.525 257.081C152.736 257.37 152.897 257.691 153.009 258.043C153.133 258.395 153.195 258.766 153.195 259.156V259.269C153.182 259.973 153.033 260.57 152.748 261.061C152.463 261.551 152.091 261.954 151.632 262.268C151.185 262.57 150.67 262.79 150.087 262.928C149.504 263.067 148.902 263.136 148.282 263.136C147.55 263.136 146.849 263.054 146.179 262.891C145.522 262.727 144.951 262.444 144.467 262.042Z" fill="white"/>
</g>
<g filter="url(#filter44_f_1185_4028)">
<path d="M241.173 219.888C240.801 219.573 240.509 219.209 240.298 218.794C240.1 218.366 239.994 217.901 239.982 217.398H241.601C241.626 217.788 241.787 218.165 242.085 218.53C242.271 218.743 242.488 218.913 242.736 219.039C242.984 219.165 243.238 219.265 243.499 219.341C243.772 219.404 244.039 219.448 244.299 219.473C244.56 219.485 244.789 219.492 244.988 219.492C245.298 219.492 245.639 219.467 246.011 219.416C246.396 219.366 246.749 219.259 247.072 219.096C247.407 218.932 247.686 218.693 247.909 218.379C248.133 218.052 248.244 217.624 248.244 217.096C248.244 216.568 248.133 216.147 247.909 215.832C247.698 215.505 247.438 215.266 247.128 215.115C246.805 214.952 246.439 214.858 246.03 214.833C245.62 214.807 245.254 214.795 244.932 214.795H243.332V213.323H244.281C244.64 213.323 245.013 213.305 245.397 213.267C245.794 213.217 246.16 213.103 246.495 212.927C246.842 212.751 247.134 212.506 247.37 212.192C247.605 211.877 247.729 211.494 247.742 211.041C247.742 210.588 247.655 210.217 247.481 209.928C247.32 209.639 247.097 209.413 246.811 209.249C246.526 209.086 246.216 208.979 245.881 208.928C245.558 208.866 245.236 208.834 244.913 208.834C244.491 208.834 244.082 208.884 243.685 208.985C243.288 209.086 242.947 209.249 242.662 209.475C242.451 209.651 242.277 209.853 242.141 210.079C242.017 210.305 241.954 210.563 241.954 210.852H240.336V210.702C240.336 210.425 240.398 210.123 240.522 209.796C240.646 209.469 240.801 209.174 240.987 208.91C241.446 208.344 242.029 207.941 242.736 207.702C243.443 207.463 244.206 207.344 245.025 207.344C245.583 207.344 246.117 207.407 246.625 207.533C247.146 207.646 247.605 207.841 248.002 208.117C248.399 208.381 248.716 208.733 248.951 209.174C249.2 209.614 249.324 210.148 249.324 210.777C249.324 211.016 249.299 211.267 249.249 211.532C249.212 211.796 249.125 212.06 248.989 212.324C248.852 212.588 248.654 212.846 248.393 213.097C248.145 213.349 247.81 213.575 247.388 213.776C247.773 213.852 248.12 213.99 248.43 214.191C248.753 214.392 249.02 214.638 249.231 214.927C249.441 215.216 249.603 215.537 249.714 215.889C249.838 216.241 249.9 216.612 249.9 217.002V217.115C249.888 217.819 249.739 218.417 249.454 218.907C249.169 219.397 248.796 219.8 248.337 220.114C247.891 220.416 247.376 220.636 246.793 220.774C246.21 220.913 245.608 220.982 244.988 220.982C244.256 220.982 243.555 220.9 242.885 220.737C242.227 220.573 241.657 220.29 241.173 219.888Z" fill="white"/>
</g>
<g filter="url(#filter45_f_1185_4028)">
<path d="M244.941 248.258V235.86H246.316V240.437C246.456 240.203 246.634 239.987 246.849 239.788C247.065 239.589 247.291 239.425 247.529 239.297C247.766 239.168 248.025 239.075 248.305 239.016C248.596 238.946 248.876 238.911 249.146 238.911C249.76 238.911 250.272 239.022 250.682 239.244C251.103 239.455 251.437 239.753 251.685 240.139C251.943 240.513 252.121 240.963 252.218 241.489C252.326 242.003 252.38 242.564 252.38 243.172V248.258H251.005V243.628C251.005 243.207 250.984 242.798 250.941 242.401C250.898 241.992 250.801 241.629 250.65 241.314C250.499 240.998 250.283 240.741 250.003 240.542C249.723 240.332 249.34 240.226 248.855 240.226C248.456 240.226 248.084 240.337 247.739 240.559C247.405 240.77 247.135 241.039 246.93 241.366C246.682 241.729 246.515 242.132 246.429 242.576C246.353 243.02 246.316 243.476 246.316 243.944V248.258H244.941Z" fill="white"/>
</g>
<g filter="url(#filter46_f_1185_4028)">
<path d="M297.014 306.529V281.733H299.763V290.887C300.043 290.419 300.399 289.987 300.83 289.589C301.261 289.192 301.714 288.864 302.189 288.607C302.663 288.35 303.18 288.163 303.741 288.046C304.323 287.906 304.884 287.836 305.423 287.836C306.652 287.836 307.676 288.058 308.495 288.502C309.336 288.923 310.005 289.519 310.501 290.291C311.018 291.039 311.374 291.939 311.568 292.991C311.784 294.02 311.891 295.142 311.891 296.358V306.529H309.142V297.27C309.142 296.428 309.099 295.61 309.013 294.815C308.927 293.997 308.733 293.272 308.431 292.641C308.129 292.009 307.698 291.495 307.137 291.097C306.576 290.677 305.811 290.466 304.841 290.466C304.043 290.466 303.299 290.688 302.609 291.133C301.941 291.553 301.402 292.091 300.992 292.746C300.496 293.471 300.162 294.277 299.989 295.166C299.838 296.054 299.763 296.966 299.763 297.902V306.529H297.014Z" fill="white"/>
</g>
<g filter="url(#filter47_f_1185_4028)">
<path d="M362.724 242.059V211.063H366.16V222.506C366.511 221.921 366.955 221.381 367.494 220.884C368.034 220.387 368.6 219.978 369.192 219.656C369.785 219.335 370.432 219.101 371.133 218.955C371.861 218.779 372.562 218.692 373.235 218.692C374.772 218.692 376.052 218.969 377.076 219.525C378.127 220.051 378.963 220.796 379.583 221.761C380.23 222.696 380.674 223.821 380.917 225.136C381.186 226.422 381.321 227.825 381.321 229.345V242.059H377.885V230.485C377.885 229.433 377.831 228.41 377.723 227.416C377.615 226.393 377.373 225.487 376.995 224.698C376.618 223.909 376.079 223.266 375.378 222.769C374.677 222.243 373.721 221.98 372.508 221.98C371.51 221.98 370.581 222.257 369.718 222.813C368.883 223.339 368.209 224.011 367.697 224.829C367.077 225.735 366.659 226.744 366.443 227.854C366.255 228.965 366.16 230.105 366.16 231.274V242.059H362.724Z" fill="white"/>
</g>
<g filter="url(#filter48_f_1185_4028)">
<path d="M262.299 248.258V235.86H263.845V245.873L270.582 235.86H272.217V248.258H270.671V238.332L263.916 248.258H262.299Z" fill="white"/>
</g>
<path d="M188.529 219.93C189.529 219.93 190.329 219.705 190.929 219.255C191.529 218.782 191.851 218.118 191.896 217.262H194.662C194.617 218.883 194.062 220.144 192.995 221.044C191.951 221.922 190.462 222.361 188.529 222.361C186.596 222.361 185.097 221.922 184.03 221.044C182.986 220.144 182.441 218.883 182.397 217.262H185.163C185.208 218.118 185.53 218.782 186.13 219.255C186.73 219.705 187.53 219.93 188.529 219.93ZM179.231 248.258V224.387H182.13V243.666L194.762 224.387H197.828V248.258H194.928V229.147L182.264 248.258H179.231Z" fill="white"/>
<path d="M274.07 274.294H272.217V258.176H274.07V265.608H276.306L281.204 258.176H283.333L277.924 266.178L283.376 274.294H281.182L276.455 267.409H274.07V274.294Z" fill="white"/>
<path d="M341.647 273.054V254.457H344.936L350.402 264.689L355.791 254.457H359.004V273.054H356.803V256.772L350.857 268.214H349.845L343.848 256.772V273.054H341.647Z" fill="white"/>
<g filter="url(#filter49_f_1185_4028)">
<path d="M228.219 211.063C226.466 211.063 224.934 210.786 223.624 210.23C222.314 209.654 221.215 208.872 220.327 207.884C219.44 206.896 218.774 205.723 218.331 204.365C217.887 203.007 217.665 201.525 217.665 199.92C217.665 198.315 217.887 196.834 218.331 195.476C218.774 194.097 219.44 192.914 220.327 191.926C221.215 190.938 222.314 190.166 223.624 189.611C224.934 189.035 226.466 188.747 228.219 188.747C229.952 188.747 231.473 189.035 232.783 189.611C234.093 190.166 235.192 190.938 236.08 191.926C236.967 192.914 237.633 194.097 238.076 195.476C238.52 196.834 238.742 198.315 238.742 199.92C238.742 201.525 238.52 203.007 238.076 204.365C237.633 205.723 236.967 206.896 236.08 207.884C235.192 208.872 234.093 209.654 232.783 210.23C231.473 210.786 229.952 211.063 228.219 211.063ZM228.219 191.185C226.888 191.185 225.737 191.422 224.765 191.895C223.793 192.348 222.99 192.975 222.356 193.778C221.722 194.58 221.247 195.517 220.93 196.587C220.613 197.636 220.454 198.747 220.454 199.92C220.454 201.093 220.602 202.205 220.898 203.254C221.215 204.304 221.69 205.23 222.324 206.032C222.958 206.835 223.761 207.473 224.733 207.946C225.726 208.399 226.888 208.625 228.219 208.625C229.551 208.625 230.702 208.399 231.674 207.946C232.646 207.473 233.438 206.845 234.051 206.063C234.685 205.26 235.15 204.334 235.446 203.285C235.763 202.235 235.921 201.114 235.921 199.92C235.921 198.727 235.763 197.605 235.446 196.556C235.15 195.486 234.685 194.56 234.051 193.778C233.417 192.975 232.614 192.348 231.642 191.895C230.67 191.422 229.529 191.185 228.219 191.185Z" fill="white"/>
</g>
<path d="M257.339 204.864V186.267H263.488C265.446 186.267 266.977 186.776 268.081 187.793C269.185 188.792 269.738 190.344 269.738 192.449C269.738 193.518 269.553 194.456 269.185 195.263C268.834 196.07 268.34 196.736 267.705 197.262C267.169 197.718 266.5 198.078 265.697 198.341C264.894 198.604 264.007 198.735 263.036 198.735H259.523V204.864H257.339ZM259.523 196.657H262.936C263.572 196.657 264.191 196.578 264.793 196.421C265.396 196.245 265.889 195.973 266.274 195.605C266.659 195.254 266.96 194.825 267.178 194.316C267.395 193.808 267.504 193.15 267.504 192.343C267.504 189.678 266.132 188.345 263.388 188.345H259.523V196.657Z" fill="white"/>
<path d="M195.737 207.67C196.285 207.67 196.781 207.643 197.224 207.591C197.666 207.521 198.073 207.398 198.445 207.223C198.817 207.03 199.162 206.768 199.481 206.435C199.817 206.102 200.136 205.656 200.436 205.095L192.869 191.226H195.604L201.764 202.731L206.491 191.226H208.987C208.42 192.487 207.854 193.783 207.287 195.114C206.738 196.427 206.181 197.749 205.614 199.08C205.189 200.078 204.747 201.094 204.287 202.127C203.844 203.143 203.375 204.132 202.879 205.095C202.543 205.761 202.18 206.383 201.791 206.96C201.419 207.538 201.021 208.02 200.596 208.405C199.941 208.983 199.224 209.368 198.445 209.561C197.666 209.736 196.763 209.824 195.737 209.824V207.67Z" fill="white"/>
<g filter="url(#filter50_f_1185_4028)">
<path d="M207.747 249.498H209.202V254.618H211.293C211.873 254.618 212.425 254.665 212.949 254.759C213.485 254.84 213.953 255.01 214.355 255.267C214.767 255.513 215.096 255.863 215.342 256.319C215.587 256.764 215.71 257.348 215.71 258.073C215.71 258.833 215.593 259.453 215.358 259.932C215.124 260.399 214.801 260.779 214.388 261.072C213.987 261.364 213.513 261.574 212.966 261.703C212.42 261.832 211.84 261.896 211.226 261.896H207.747V249.498ZM217.45 261.896V249.498H218.905V261.896H217.45ZM209.202 260.511H211.042C211.444 260.511 211.834 260.487 212.213 260.44C212.604 260.382 212.949 260.271 213.25 260.107C213.552 259.932 213.791 259.692 213.97 259.388C214.148 259.084 214.238 258.681 214.238 258.178C214.238 257.676 214.148 257.284 213.97 257.003C213.791 256.711 213.557 256.495 213.267 256.354C212.977 256.202 212.643 256.109 212.263 256.074C211.895 256.027 211.516 256.004 211.126 256.004H209.202V260.511Z" fill="white"/>
</g>
<g filter="url(#filter51_f_1185_4028)">
<path d="M177.202 217.262V214.31H174.609V212.939H177.202V212.522L173.032 204.864H174.749L177.991 210.959L181.25 204.864H182.95L178.78 212.453V212.939H181.356V214.31H178.78V217.262H177.202Z" fill="white"/>
</g>
<g filter="url(#filter52_f_1185_4028)">
<line x1="178.091" y1="218.502" x2="178.091" y2="466.466" stroke="url(#paint16_linear_1185_4028)" stroke-width="0.2"/>
</g>
<line x1="196.838" y1="235.86" x2="196.838" y2="483.824" stroke="url(#paint17_linear_1185_4028)" stroke-width="0.5"/>
<g filter="url(#filter53_f_1185_4028)">
<line x1="180.721" y1="233.38" x2="180.721" y2="481.344" stroke="url(#paint18_linear_1185_4028)" stroke-width="0.5"/>
</g>
<line x1="188.159" y1="237.1" x2="188.159" y2="485.063" stroke="url(#paint19_linear_1185_4028)" stroke-width="0.5"/>
<line x1="200.558" y1="206.104" x2="200.558" y2="454.068" stroke="url(#paint20_linear_1185_4028)" stroke-width="0.5"/>
<line x1="246.431" y1="281.733" x2="246.431" y2="529.697" stroke="url(#paint21_linear_1185_4028)" stroke-width="0.5"/>
<path d="M239.32 202.385V197.661H235.106V195.467H239.32V194.8L232.543 182.548H235.334L240.602 192.299L245.898 182.548H248.661L241.883 194.689V195.467H246.069V197.661H241.883V202.385H239.32Z" fill="white"/>
<path d="M159.394 249.498V230.9H165.542C167.5 230.9 169.031 231.409 170.135 232.426C171.24 233.426 171.792 234.978 171.792 237.082C171.792 238.152 171.608 239.09 171.24 239.897C170.888 240.703 170.395 241.37 169.759 241.896C169.223 242.352 168.554 242.711 167.751 242.974C166.948 243.237 166.061 243.369 165.091 243.369H161.577V249.498H159.394ZM161.577 241.291H164.99C165.626 241.291 166.245 241.212 166.848 241.054C167.45 240.879 167.943 240.607 168.328 240.239C168.713 239.888 169.014 239.458 169.232 238.95C169.449 238.441 169.558 237.783 169.558 236.977C169.558 234.311 168.186 232.979 165.442 232.979H161.577V241.291Z" fill="white"/>
<line x1="241.472" y1="197.425" x2="241.472" y2="445.389" stroke="url(#paint22_linear_1185_4028)" stroke-width="0.5"/>
<line x1="159.644" y1="248.258" x2="159.644" y2="496.222" stroke="url(#paint23_linear_1185_4028)" stroke-width="0.5"/>
<line x1="155.924" y1="276.774" x2="155.924" y2="524.738" stroke="url(#paint24_linear_1185_4028)" stroke-width="0.5"/>
<line x1="200.558" y1="188.747" x2="200.558" y2="436.71" stroke="url(#paint25_linear_1185_4028)" stroke-width="0.5"/>
<line x1="220.395" y1="196.186" x2="220.395" y2="444.149" stroke="url(#paint26_linear_1185_4028)" stroke-width="0.5"/>
<g filter="url(#filter54_f_1185_4028)">
<line x1="238.992" y1="259.416" x2="238.992" y2="507.38" stroke="url(#paint27_linear_1185_4028)" stroke-width="0.5"/>
</g>
<line x1="315.861" y1="230.9" x2="315.861" y2="478.864" stroke="url(#paint28_linear_1185_4028)" stroke-width="0.5"/>
<line x1="283.625" y1="306.529" x2="283.625" y2="554.493" stroke="url(#paint29_linear_1185_4028)" stroke-width="0.5"/>
<line x1="300.983" y1="218.502" x2="300.983" y2="466.466" stroke="url(#paint30_linear_1185_4028)" stroke-width="0.5"/>
<line x1="147.245" y1="214.783" x2="147.245" y2="462.747" stroke="url(#paint31_linear_1185_4028)" stroke-width="0.5"/>
<line x1="336.993" y1="236.321" x2="338.915" y2="484.277" stroke="url(#paint32_linear_1185_4028)" stroke-width="0.5"/>
<line x1="355.535" y1="207.342" x2="357.457" y2="455.298" stroke="url(#paint33_linear_1185_4028)" stroke-width="0.5"/>
<line x1="364.214" y1="207.342" x2="366.136" y2="455.298" stroke="url(#paint34_linear_1185_4028)" stroke-width="0.5"/>
<line x1="293.544" y1="217.261" x2="295.466" y2="465.217" stroke="url(#paint35_linear_1185_4028)" stroke-width="0.5"/>
<line x1="273.707" y1="216.021" x2="275.629" y2="463.977" stroke="url(#paint36_linear_1185_4028)" stroke-width="0.5"/>
<line x1="343.137" y1="261.894" x2="345.059" y2="509.85" stroke="url(#paint37_linear_1185_4028)" stroke-width="0.5"/>
<line x1="273.707" y1="265.613" x2="275.629" y2="513.57" stroke="url(#paint38_linear_1185_4028)" stroke-width="0.5"/>
<g filter="url(#filter55_f_1185_4028)">
<line x1="260.069" y1="261.894" x2="261.991" y2="509.85" stroke="url(#paint39_linear_1185_4028)" stroke-width="0.5"/>
</g>
<g filter="url(#filter56_f_1185_4028)">
<line x1="245.191" y1="243.297" x2="247.113" y2="491.253" stroke="url(#paint40_linear_1185_4028)" stroke-width="0.5"/>
</g>
<line x1="266.268" y1="264.374" x2="268.19" y2="512.33" stroke="url(#paint41_linear_1185_4028)" stroke-width="0.5"/>
<line x1="284.865" y1="214.781" x2="286.788" y2="462.737" stroke="url(#paint42_linear_1185_4028)" stroke-width="0.5"/>
<g filter="url(#filter57_f_1185_4028)">
<line x1="282.386" y1="278.012" x2="284.308" y2="525.968" stroke="url(#paint43_linear_1185_4028)" stroke-width="0.5"/>
</g>
<g filter="url(#filter58_f_1185_4028)">
<line x1="333.218" y1="194.944" x2="335.14" y2="442.9" stroke="url(#paint44_linear_1185_4028)" stroke-width="0.5"/>
</g>
<g filter="url(#filter59_f_1185_4028)">
<line x1="276.187" y1="187.505" x2="278.109" y2="435.461" stroke="url(#paint45_linear_1185_4028)" stroke-width="0.5"/>
</g>
<line x1="257.589" y1="223.46" x2="259.512" y2="471.416" stroke="url(#paint46_linear_1185_4028)" stroke-width="0.5"/>
<g filter="url(#filter60_f_1185_4028)">
<line x1="186.92" y1="204.862" x2="188.842" y2="452.819" stroke="url(#paint47_linear_1185_4028)" stroke-width="0.5"/>
</g>
<g filter="url(#filter61_f_1185_4028)">
<line x1="205.517" y1="183.785" x2="207.439" y2="431.742" stroke="url(#paint48_linear_1185_4028)" stroke-width="0.5"/>
</g>
<line x1="175.761" y1="209.822" x2="177.683" y2="457.778" stroke="url(#paint49_linear_1185_4028)" stroke-width="0.5"/>
<line x1="186.92" y1="185.025" x2="188.842" y2="432.982" stroke="url(#paint50_linear_1185_4028)" stroke-width="0.5"/>
<line x1="253.87" y1="172.627" x2="255.792" y2="420.583" stroke="url(#paint51_linear_1185_4028)" stroke-width="0.5"/>
<g filter="url(#filter62_f_1185_4028)">
<line x1="350.576" y1="249.496" x2="352.498" y2="497.452" stroke="url(#paint52_linear_1185_4028)" stroke-width="0.5"/>
</g>
<g filter="url(#filter63_f_1185_4028)">
<line x1="144.766" y1="263.134" x2="146.688" y2="511.09" stroke="url(#paint53_linear_1185_4028)" stroke-width="0.5"/>
</g>
<g filter="url(#filter64_f_1185_4028)">
<line x1="308.422" y1="269.333" x2="310.344" y2="517.289" stroke="url(#paint54_linear_1185_4028)" stroke-width="0.5"/>
</g>
<g filter="url(#filter65_f_1185_4028)">
<line x1="303.463" y1="273.052" x2="305.385" y2="521.009" stroke="url(#paint55_linear_1185_4028)" stroke-width="0.5"/>
</g>
<g filter="url(#filter66_f_1185_4028)">
<line x1="152.205" y1="214.781" x2="154.127" y2="462.737" stroke="url(#paint56_linear_1185_4028)" stroke-width="0.5"/>
</g>
<g filter="url(#filter67_f_1185_4028)">
<line x1="366.693" y1="233.378" x2="368.616" y2="481.335" stroke="url(#paint57_linear_1185_4028)" stroke-width="0.5"/>
</g>
<path d="M256.1 224.701V212.303H264.778V213.689H257.689V217.862H264.066V219.265H257.689V223.316H264.778V224.701H256.1Z" fill="white"/>
<g filter="url(#filter68_f_1185_4028)">
<path d="M185.43 208.584V188.747H199.068V190.963H187.928V197.641H197.948V199.886H187.928V206.367H199.068V208.584H185.43Z" fill="white"/>
</g>
<path d="M215.186 255.697V233.38H219.415L226.442 245.659L233.371 233.38H237.502V255.697H234.672V236.158L227.027 249.889H225.726L218.016 236.158V255.697H215.186Z" fill="#B6FA96"/>
<path d="M219.232 160.231L206.145 175.017L216.825 187.246H221.385V198.665H217.754V190.654H215.263L201.628 175.23V190.654H197.828V160.231H201.628V174.974L214.926 160.231H219.232Z" fill="#B6FA96"/>
<path d="M259.032 265.615V259.693H257.101L254.186 265.615H252.38L255.813 258.729L252.398 251.977H254.115L257.137 258.169H259.032V251.977H260.588V258.169H262.519L265.541 251.977H267.222L263.807 258.729L267.258 265.615H265.434L262.519 259.693H260.588V265.615H259.032Z" fill="white"/>
<path d="M174.271 309.009V276.774H195.348V280.376H178.132V291.227H193.618V294.875H178.132V305.407H195.348V309.009H174.271Z" fill="#B6FA96"/>
<path d="M282.699 310.249V291.527H275.937V289.172H292.054V291.527H285.291V310.249H282.699Z" fill="#B6FA96"/>
<path d="M247.863 219.742V208.729H243.701V207.344H253.62V208.729H249.458V219.742H247.863Z" fill="white"/>
<path d="M243.082 269.375C243.548 269.375 243.921 269.267 244.201 269.051C244.481 268.824 244.632 268.506 244.652 268.095H245.943C245.923 268.873 245.663 269.478 245.166 269.91C244.678 270.332 243.984 270.542 243.082 270.542C242.179 270.542 241.48 270.332 240.982 269.91C240.495 269.478 240.24 268.873 240.22 268.095H241.511C241.531 268.506 241.682 268.824 241.962 269.051C242.242 269.267 242.615 269.375 243.082 269.375ZM238.742 282.973V271.515H240.095V280.769L245.99 271.515H247.421V282.973H246.068V273.8L240.158 282.973H238.742Z" fill="white"/>
<g filter="url(#filter69_d_1185_4028)">
<rect x="120" y="101" width="266" height="465.611" rx="26" stroke="#B6FA96" stroke-width="8" shape-rendering="crispEdges"/>
</g>
<defs>
<filter id="filter0_f_1185_4028" x="433" y="202" width="82" height="82" filterUnits="userSpaceOnUse" color-interpolation-filters="sRGB">
<feFlood flood-opacity="0" result="BackgroundImageFix"/>
<feBlend mode="normal" in="SourceGraphic" in2="BackgroundImageFix" result="shape"/>
<feGaussianBlur stdDeviation="10" result="effect1_foregroundBlur_1185_4028"/>
</filter>
<filter id="filter1_f_1185_4028" x="325" y="0" width="169" height="169" filterUnits="userSpaceOnUse" color-interpolation-filters="sRGB">
<feFlood flood-opacity="0" result="BackgroundImageFix"/>
<feBlend mode="normal" in="SourceGraphic" in2="BackgroundImageFix" result="shape"/>
<feGaussianBlur stdDeviation="20" result="effect1_foregroundBlur_1185_4028"/>
</filter>
<filter id="filter2_f_1185_4028" x="53" y="34" width="444" height="444" filterUnits="userSpaceOnUse" color-interpolation-filters="sRGB">
<feFlood flood-opacity="0" result="BackgroundImageFix"/>
<feBlend mode="normal" in="SourceGraphic" in2="BackgroundImageFix" result="shape"/>
<feGaussianBlur stdDeviation="15" result="effect1_foregroundBlur_1185_4028"/>
</filter>
<filter id="filter3_f_1185_4028" x="0" y="169.988" width="125.656" height="125.656" filterUnits="userSpaceOnUse" color-interpolation-filters="sRGB">
<feFlood flood-opacity="0" result="BackgroundImageFix"/>
<feBlend mode="normal" in="SourceGraphic" in2="BackgroundImageFix" result="shape"/>
<feGaussianBlur stdDeviation="10" result="effect1_foregroundBlur_1185_4028"/>
</filter>
<filter id="filter4_f_1185_4028" x="52.9712" y="179.542" width="72.6843" height="114.824" filterUnits="userSpaceOnUse" color-interpolation-filters="sRGB">
<feFlood flood-opacity="0" result="BackgroundImageFix"/>
<feBlend mode="normal" in="SourceGraphic" in2="BackgroundImageFix" result="shape"/>
<feGaussianBlur stdDeviation="10" result="effect1_foregroundBlur_1185_4028"/>
</filter>
<filter id="filter5_f_1185_4028" x="306.851" y="230.819" width="37.3574" height="42.3167" filterUnits="userSpaceOnUse" color-interpolation-filters="sRGB">
<feFlood flood-opacity="0" result="BackgroundImageFix"/>
<feBlend mode="normal" in="SourceGraphic" in2="BackgroundImageFix" result="shape"/>
<feGaussianBlur stdDeviation="5" result="effect1_foregroundBlur_1185_4028"/>
</filter>
<filter id="filter6_f_1185_4028" x="315.091" y="234.1" width="20.8779" height="24.5973" filterUnits="userSpaceOnUse" color-interpolation-filters="sRGB">
<feFlood flood-opacity="0" result="BackgroundImageFix"/>
<feBlend mode="normal" in="SourceGraphic" in2="BackgroundImageFix" result="shape"/>
<feGaussianBlur stdDeviation="1.5" result="effect1_foregroundBlur_1185_4028"/>
</filter>
<filter id="filter7_f_1185_4028" x="301.213" y="179.308" width="22.5972" height="25.0769" filterUnits="userSpaceOnUse" color-interpolation-filters="sRGB">
<feFlood flood-opacity="0" result="BackgroundImageFix"/>
<feBlend mode="normal" in="SourceGraphic" in2="BackgroundImageFix" result="shape"/>
<feGaussianBlur stdDeviation="1" result="effect1_foregroundBlur_1185_4028"/>
</filter>
<filter id="filter8_f_1185_4028" x="252.339" y="192.425" width="22.3982" height="23.638" filterUnits="userSpaceOnUse" color-interpolation-filters="sRGB">
<feFlood flood-opacity="0" result="BackgroundImageFix"/>
<feBlend mode="normal" in="SourceGraphic" in2="BackgroundImageFix" result="shape"/>
<feGaussianBlur stdDeviation="2.5" result="effect1_foregroundBlur_1185_4028"/>
</filter>
<filter id="filter9_f_1185_4028" x="143.113" y="233.217" width="62.3167" height="62.3167" filterUnits="userSpaceOnUse" color-interpolation-filters="sRGB">
<feFlood flood-opacity="0" result="BackgroundImageFix"/>
<feBlend mode="normal" in="SourceGraphic" in2="BackgroundImageFix" result="shape"/>
<feGaussianBlur stdDeviation="10" result="effect1_foregroundBlur_1185_4028"/>
</filter>
<filter id="filter10_f_1185_4028" x="220.625" y="205.34" width="6.90259" height="313.949" filterUnits="userSpaceOnUse" color-interpolation-filters="sRGB">
<feFlood flood-opacity="0" result="BackgroundImageFix"/>
<feBlend mode="normal" in="SourceGraphic" in2="BackgroundImageFix" result="shape"/>
<feGaussianBlur stdDeviation="1" result="effect1_foregroundBlur_1185_4028"/>
</filter>
<filter id="filter11_f_1185_4028" x="261.539" y="252.453" width="6.90259" height="313.949" filterUnits="userSpaceOnUse" color-interpolation-filters="sRGB">
<feFlood flood-opacity="0" result="BackgroundImageFix"/>
<feBlend mode="normal" in="SourceGraphic" in2="BackgroundImageFix" result="shape"/>
<feGaussianBlur stdDeviation="1" result="effect1_foregroundBlur_1185_4028"/>
</filter>
<filter id="filter12_f_1185_4028" x="319.81" y="252.453" width="6.90259" height="313.949" filterUnits="userSpaceOnUse" color-interpolation-filters="sRGB">
<feFlood flood-opacity="0" result="BackgroundImageFix"/>
<feBlend mode="normal" in="SourceGraphic" in2="BackgroundImageFix" result="shape"/>
<feGaussianBlur stdDeviation="1" result="effect1_foregroundBlur_1185_4028"/>
</filter>
<filter id="filter13_f_1185_4028" x="315.448" y="369.597" width="67.2761" height="67.276" filterUnits="userSpaceOnUse" color-interpolation-filters="sRGB">
<feFlood flood-opacity="0" result="BackgroundImageFix"/>
<feBlend mode="normal" in="SourceGraphic" in2="BackgroundImageFix" result="shape"/>
<feGaussianBlur stdDeviation="10" result="effect1_foregroundBlur_1185_4028"/>
</filter>
<filter id="filter14_f_1185_4028" x="117.077" y="300.167" width="62.3167" height="62.3167" filterUnits="userSpaceOnUse" color-interpolation-filters="sRGB">
<feFlood flood-opacity="0" result="BackgroundImageFix"/>
<feBlend mode="normal" in="SourceGraphic" in2="BackgroundImageFix" result="shape"/>
<feGaussianBlur stdDeviation="10" result="effect1_foregroundBlur_1185_4028"/>
</filter>
<filter id="filter15_f_1185_4028" x="159.113" y="274.01" width="10.9026" height="317.949" filterUnits="userSpaceOnUse" color-interpolation-filters="sRGB">
<feFlood flood-opacity="0" result="BackgroundImageFix"/>
<feBlend mode="normal" in="SourceGraphic" in2="BackgroundImageFix" result="shape"/>
<feGaussianBlur stdDeviation="2" result="effect1_foregroundBlur_1185_4028"/>
</filter>
<filter id="filter16_f_1185_4028" x="154.154" y="277.729" width="10.9026" height="317.949" filterUnits="userSpaceOnUse" color-interpolation-filters="sRGB">
<feFlood flood-opacity="0" result="BackgroundImageFix"/>
<feBlend mode="normal" in="SourceGraphic" in2="BackgroundImageFix" result="shape"/>
<feGaussianBlur stdDeviation="2" result="effect1_foregroundBlur_1185_4028"/>
</filter>
<filter id="filter17_f_1185_4028" x="347.566" y="240.535" width="10.9026" height="317.949" filterUnits="userSpaceOnUse" color-interpolation-filters="sRGB">
<feFlood flood-opacity="0" result="BackgroundImageFix"/>
<feBlend mode="normal" in="SourceGraphic" in2="BackgroundImageFix" result="shape"/>
<feGaussianBlur stdDeviation="2" result="effect1_foregroundBlur_1185_4028"/>
</filter>
<filter id="filter18_f_1185_4028" x="342.606" y="244.254" width="10.9026" height="317.949" filterUnits="userSpaceOnUse" color-interpolation-filters="sRGB">
<feFlood flood-opacity="0" result="BackgroundImageFix"/>
<feBlend mode="normal" in="SourceGraphic" in2="BackgroundImageFix" result="shape"/>
<feGaussianBlur stdDeviation="2" result="effect1_foregroundBlur_1185_4028"/>
</filter>
<filter id="filter19_f_1185_4028" x="151.873" y="204.783" width="34.8779" height="43.5565" filterUnits="userSpaceOnUse" color-interpolation-filters="sRGB">
<feFlood flood-opacity="0" result="BackgroundImageFix"/>
<feBlend mode="normal" in="SourceGraphic" in2="BackgroundImageFix" result="shape"/>
<feGaussianBlur stdDeviation="5" result="effect1_foregroundBlur_1185_4028"/>
</filter>
<filter id="filter20_f_1185_4028" x="159.231" y="279.091" width="58.5972" height="58.5973" filterUnits="userSpaceOnUse" color-interpolation-filters="sRGB">
<feFlood flood-opacity="0" result="BackgroundImageFix"/>
<feBlend mode="normal" in="SourceGraphic" in2="BackgroundImageFix" result="shape"/>
<feGaussianBlur stdDeviation="10" result="effect1_foregroundBlur_1185_4028"/>
</filter>
<filter id="filter21_f_1185_4028" x="258.498" y="246.937" width="39.8372" height="43.5565" filterUnits="userSpaceOnUse" color-interpolation-filters="sRGB">
<feFlood flood-opacity="0" result="BackgroundImageFix"/>
<feBlend mode="normal" in="SourceGraphic" in2="BackgroundImageFix" result="shape"/>
<feGaussianBlur stdDeviation="5" result="effect1_foregroundBlur_1185_4028"/>
</filter>
<filter id="filter22_f_1185_4028" x="213.665" y="276.493" width="22.8779" height="21.638" filterUnits="userSpaceOnUse" color-interpolation-filters="sRGB">
<feFlood flood-opacity="0" result="BackgroundImageFix"/>
<feBlend mode="normal" in="SourceGraphic" in2="BackgroundImageFix" result="shape"/>
<feGaussianBlur stdDeviation="2" result="effect1_foregroundBlur_1185_4028"/>
</filter>
<filter id="filter23_f_1185_4028" x="230.543" y="170.629" width="13.9185" height="15.1584" filterUnits="userSpaceOnUse" color-interpolation-filters="sRGB">
<feFlood flood-opacity="0" result="BackgroundImageFix"/>
<feBlend mode="normal" in="SourceGraphic" in2="BackgroundImageFix" result="shape"/>
<feGaussianBlur stdDeviation="1" result="effect1_foregroundBlur_1185_4028"/>
</filter>
<filter id="filter24_f_1185_4028" x="254.579" y="199.621" width="10.9026" height="317.949" filterUnits="userSpaceOnUse" color-interpolation-filters="sRGB">
<feFlood flood-opacity="0" result="BackgroundImageFix"/>
<feBlend mode="normal" in="SourceGraphic" in2="BackgroundImageFix" result="shape"/>
<feGaussianBlur stdDeviation="2" result="effect1_foregroundBlur_1185_4028"/>
</filter>
<filter id="filter25_f_1185_4028" x="239.701" y="293.851" width="25.3574" height="32.7964" filterUnits="userSpaceOnUse" color-interpolation-filters="sRGB">
<feFlood flood-opacity="0" result="BackgroundImageFix"/>
<feBlend mode="normal" in="SourceGraphic" in2="BackgroundImageFix" result="shape"/>
<feGaussianBlur stdDeviation="2" result="effect1_foregroundBlur_1185_4028"/>
</filter>
<filter id="filter26_f_1185_4028" x="181.43" y="247.977" width="19.1584" height="24.1176" filterUnits="userSpaceOnUse" color-interpolation-filters="sRGB">
<feFlood flood-opacity="0" result="BackgroundImageFix"/>
<feBlend mode="normal" in="SourceGraphic" in2="BackgroundImageFix" result="shape"/>
<feGaussianBlur stdDeviation="2" result="effect1_foregroundBlur_1185_4028"/>
</filter>
<filter id="filter27_f_1185_4028" x="214.425" y="168.149" width="6.47974" height="28.7964" filterUnits="userSpaceOnUse" color-interpolation-filters="sRGB">
<feFlood flood-opacity="0" result="BackgroundImageFix"/>
<feBlend mode="normal" in="SourceGraphic" in2="BackgroundImageFix" result="shape"/>
<feGaussianBlur stdDeviation="1" result="effect1_foregroundBlur_1185_4028"/>
</filter>
<filter id="filter28_f_1185_4028" x="245.421" y="215.262" width="16.3982" height="16.3982" filterUnits="userSpaceOnUse" color-interpolation-filters="sRGB">
<feFlood flood-opacity="0" result="BackgroundImageFix"/>
<feBlend mode="normal" in="SourceGraphic" in2="BackgroundImageFix" result="shape"/>
<feGaussianBlur stdDeviation="1" result="effect1_foregroundBlur_1185_4028"/>
</filter>
<filter id="filter29_f_1185_4028" x="256.018" y="285.371" width="42.3167" height="42.3167" filterUnits="userSpaceOnUse" color-interpolation-filters="sRGB">
<feFlood flood-opacity="0" result="BackgroundImageFix"/>
<feBlend mode="normal" in="SourceGraphic" in2="BackgroundImageFix" result="shape"/>
<feGaussianBlur stdDeviation="5" result="effect1_foregroundBlur_1185_4028"/>
</filter>
<filter id="filter30_f_1185_4028" x="328.968" y="203.344" width="20.3982" height="17.9185" filterUnits="userSpaceOnUse" color-interpolation-filters="sRGB">
<feFlood flood-opacity="0" result="BackgroundImageFix"/>
<feBlend mode="normal" in="SourceGraphic" in2="BackgroundImageFix" result="shape"/>
<feGaussianBlur stdDeviation="2" result="effect1_foregroundBlur_1185_4028"/>
</filter>
<filter id="filter31_f_1185_4028" x="330.968" y="179.308" width="12.6787" height="17.638" filterUnits="userSpaceOnUse" color-interpolation-filters="sRGB">
<feFlood flood-opacity="0" result="BackgroundImageFix"/>
<feBlend mode="normal" in="SourceGraphic" in2="BackgroundImageFix" result="shape"/>
<feGaussianBlur stdDeviation="1" result="effect1_foregroundBlur_1185_4028"/>
</filter>
<filter id="filter32_f_1185_4028" x="255.819" y="152.511" width="26.5972" height="38.9955" filterUnits="userSpaceOnUse" color-interpolation-filters="sRGB">
<feFlood flood-opacity="0" result="BackgroundImageFix"/>
<feBlend mode="normal" in="SourceGraphic" in2="BackgroundImageFix" result="shape"/>
<feGaussianBlur stdDeviation="2" result="effect1_foregroundBlur_1185_4028"/>
</filter>
<filter id="filter33_f_1185_4028" x="234.502" y="248.977" width="14.6787" height="18.3982" filterUnits="userSpaceOnUse" color-interpolation-filters="sRGB">
<feFlood flood-opacity="0" result="BackgroundImageFix"/>
<feBlend mode="normal" in="SourceGraphic" in2="BackgroundImageFix" result="shape"/>
<feGaussianBlur stdDeviation="1.5" result="effect1_foregroundBlur_1185_4028"/>
</filter>
<filter id="filter34_f_1185_4028" x="147.715" y="203.104" width="17.1584" height="22.1176" filterUnits="userSpaceOnUse" color-interpolation-filters="sRGB">
<feFlood flood-opacity="0" result="BackgroundImageFix"/>
<feBlend mode="normal" in="SourceGraphic" in2="BackgroundImageFix" result="shape"/>
<feGaussianBlur stdDeviation="1.5" result="effect1_foregroundBlur_1185_4028"/>
</filter>
<filter id="filter35_f_1185_4028" x="290.534" y="245.498" width="29.0769" height="30.3167" filterUnits="userSpaceOnUse" color-interpolation-filters="sRGB">
<feFlood flood-opacity="0" result="BackgroundImageFix"/>
<feBlend mode="normal" in="SourceGraphic" in2="BackgroundImageFix" result="shape"/>
<feGaussianBlur stdDeviation="2" result="effect1_foregroundBlur_1185_4028"/>
</filter>
<filter id="filter36_f_1185_4028" x="193.068" y="154.231" width="31.8372" height="35.5565" filterUnits="userSpaceOnUse" color-interpolation-filters="sRGB">
<feFlood flood-opacity="0" result="BackgroundImageFix"/>
<feBlend mode="normal" in="SourceGraphic" in2="BackgroundImageFix" result="shape"/>
<feGaussianBlur stdDeviation="3" result="effect1_foregroundBlur_1185_4028"/>
</filter>
<filter id="filter37_f_1185_4028" x="263.258" y="218.222" width="25.3574" height="27.8371" filterUnits="userSpaceOnUse" color-interpolation-filters="sRGB">
<feFlood flood-opacity="0" result="BackgroundImageFix"/>
<feBlend mode="normal" in="SourceGraphic" in2="BackgroundImageFix" result="shape"/>
<feGaussianBlur stdDeviation="2" result="effect1_foregroundBlur_1185_4028"/>
</filter>
<filter id="filter38_f_1185_4028" x="291.774" y="193.425" width="20.3982" height="20.3982" filterUnits="userSpaceOnUse" color-interpolation-filters="sRGB">
<feFlood flood-opacity="0" result="BackgroundImageFix"/>
<feBlend mode="normal" in="SourceGraphic" in2="BackgroundImageFix" result="shape"/>
<feGaussianBlur stdDeviation="2" result="effect1_foregroundBlur_1185_4028"/>
</filter>
<filter id="filter39_f_1185_4028" x="193.828" y="210.783" width="21.6379" height="24.1176" filterUnits="userSpaceOnUse" color-interpolation-filters="sRGB">
<feFlood flood-opacity="0" result="BackgroundImageFix"/>
<feBlend mode="normal" in="SourceGraphic" in2="BackgroundImageFix" result="shape"/>
<feGaussianBlur stdDeviation="2" result="effect1_foregroundBlur_1185_4028"/>
</filter>
<filter id="filter40_f_1185_4028" x="283.095" y="228.14" width="21.6379" height="24.1176" filterUnits="userSpaceOnUse" color-interpolation-filters="sRGB">
<feFlood flood-opacity="0" result="BackgroundImageFix"/>
<feBlend mode="normal" in="SourceGraphic" in2="BackgroundImageFix" result="shape"/>
<feGaussianBlur stdDeviation="2" result="effect1_foregroundBlur_1185_4028"/>
</filter>
<filter id="filter41_f_1185_4028" x="206.986" y="225.181" width="20.1177" height="27.5565" filterUnits="userSpaceOnUse" color-interpolation-filters="sRGB">
<feFlood flood-opacity="0" result="BackgroundImageFix"/>
<feBlend mode="normal" in="SourceGraphic" in2="BackgroundImageFix" result="shape"/>
<feGaussianBlur stdDeviation="1" result="effect1_foregroundBlur_1185_4028"/>
</filter>
<filter id="filter42_f_1185_4028" x="341.366" y="231.86" width="17.9185" height="21.638" filterUnits="userSpaceOnUse" color-interpolation-filters="sRGB">
<feFlood flood-opacity="0" result="BackgroundImageFix"/>
<feBlend mode="normal" in="SourceGraphic" in2="BackgroundImageFix" result="shape"/>
<feGaussianBlur stdDeviation="2" result="effect1_foregroundBlur_1185_4028"/>
</filter>
<filter id="filter43_f_1185_4028" x="139.276" y="245.498" width="17.9185" height="21.638" filterUnits="userSpaceOnUse" color-interpolation-filters="sRGB">
<feFlood flood-opacity="0" result="BackgroundImageFix"/>
<feBlend mode="normal" in="SourceGraphic" in2="BackgroundImageFix" result="shape"/>
<feGaussianBlur stdDeviation="2" result="effect1_foregroundBlur_1185_4028"/>
</filter>
<filter id="filter44_f_1185_4028" x="235.982" y="203.344" width="17.9185" height="21.638" filterUnits="userSpaceOnUse" color-interpolation-filters="sRGB">
<feFlood flood-opacity="0" result="BackgroundImageFix"/>
<feBlend mode="normal" in="SourceGraphic" in2="BackgroundImageFix" result="shape"/>
<feGaussianBlur stdDeviation="2" result="effect1_foregroundBlur_1185_4028"/>
</filter>
<filter id="filter45_f_1185_4028" x="243.941" y="234.86" width="9.43896" height="14.3982" filterUnits="userSpaceOnUse" color-interpolation-filters="sRGB">
<feFlood flood-opacity="0" result="BackgroundImageFix"/>
<feBlend mode="normal" in="SourceGraphic" in2="BackgroundImageFix" result="shape"/>
<feGaussianBlur stdDeviation="0.5" result="effect1_foregroundBlur_1185_4028"/>
</filter>
<filter id="filter46_f_1185_4028" x="293.014" y="277.733" width="22.8779" height="32.7964" filterUnits="userSpaceOnUse" color-interpolation-filters="sRGB">
<feFlood flood-opacity="0" result="BackgroundImageFix"/>
<feBlend mode="normal" in="SourceGraphic" in2="BackgroundImageFix" result="shape"/>
<feGaussianBlur stdDeviation="2" result="effect1_foregroundBlur_1185_4028"/>
</filter>
<filter id="filter47_f_1185_4028" x="358.724" y="207.063" width="26.5972" height="38.9955" filterUnits="userSpaceOnUse" color-interpolation-filters="sRGB">
<feFlood flood-opacity="0" result="BackgroundImageFix"/>
<feBlend mode="normal" in="SourceGraphic" in2="BackgroundImageFix" result="shape"/>
<feGaussianBlur stdDeviation="2" result="effect1_foregroundBlur_1185_4028"/>
</filter>
<filter id="filter48_f_1185_4028" x="258.299" y="231.86" width="17.9185" height="20.3982" filterUnits="userSpaceOnUse" color-interpolation-filters="sRGB">
<feFlood flood-opacity="0" result="BackgroundImageFix"/>
<feBlend mode="normal" in="SourceGraphic" in2="BackgroundImageFix" result="shape"/>
<feGaussianBlur stdDeviation="2" result="effect1_foregroundBlur_1185_4028"/>
</filter>
<filter id="filter49_f_1185_4028" x="213.665" y="184.747" width="29.0769" height="30.3167" filterUnits="userSpaceOnUse" color-interpolation-filters="sRGB">
<feFlood flood-opacity="0" result="BackgroundImageFix"/>
<feBlend mode="normal" in="SourceGraphic" in2="BackgroundImageFix" result="shape"/>
<feGaussianBlur stdDeviation="2" result="effect1_foregroundBlur_1185_4028"/>
</filter>
<filter id="filter50_f_1185_4028" x="205.747" y="247.498" width="15.1584" height="16.3982" filterUnits="userSpaceOnUse" color-interpolation-filters="sRGB">
<feFlood flood-opacity="0" result="BackgroundImageFix"/>
<feBlend mode="normal" in="SourceGraphic" in2="BackgroundImageFix" result="shape"/>
<feGaussianBlur stdDeviation="1" result="effect1_foregroundBlur_1185_4028"/>
</filter>
<filter id="filter51_f_1185_4028" x="169.032" y="200.864" width="17.9185" height="20.3982" filterUnits="userSpaceOnUse" color-interpolation-filters="sRGB">
<feFlood flood-opacity="0" result="BackgroundImageFix"/>
<feBlend mode="normal" in="SourceGraphic" in2="BackgroundImageFix" result="shape"/>
<feGaussianBlur stdDeviation="2" result="effect1_foregroundBlur_1185_4028"/>
</filter>
<filter id="filter52_f_1185_4028" x="175.991" y="216.502" width="4.19995" height="251.964" filterUnits="userSpaceOnUse" color-interpolation-filters="sRGB">
<feFlood flood-opacity="0" result="BackgroundImageFix"/>
<feBlend mode="normal" in="SourceGraphic" in2="BackgroundImageFix" result="shape"/>
<feGaussianBlur stdDeviation="1" result="effect1_foregroundBlur_1185_4028"/>
</filter>
<filter id="filter53_f_1185_4028" x="179.471" y="232.38" width="2.5" height="249.964" filterUnits="userSpaceOnUse" color-interpolation-filters="sRGB">
<feFlood flood-opacity="0" result="BackgroundImageFix"/>
<feBlend mode="normal" in="SourceGraphic" in2="BackgroundImageFix" result="shape"/>
<feGaussianBlur stdDeviation="0.5" result="effect1_foregroundBlur_1185_4028"/>
</filter>
<filter id="filter54_f_1185_4028" x="235.742" y="256.416" width="6.5" height="253.964" filterUnits="userSpaceOnUse" color-interpolation-filters="sRGB">
<feFlood flood-opacity="0" result="BackgroundImageFix"/>
<feBlend mode="normal" in="SourceGraphic" in2="BackgroundImageFix" result="shape"/>
<feGaussianBlur stdDeviation="1.5" result="effect1_foregroundBlur_1185_4028"/>
</filter>
<filter id="filter55_f_1185_4028" x="258.819" y="260.892" width="4.42212" height="249.96" filterUnits="userSpaceOnUse" color-interpolation-filters="sRGB">
<feFlood flood-opacity="0" result="BackgroundImageFix"/>
<feBlend mode="normal" in="SourceGraphic" in2="BackgroundImageFix" result="shape"/>
<feGaussianBlur stdDeviation="0.5" result="effect1_foregroundBlur_1185_4028"/>
</filter>
<filter id="filter56_f_1185_4028" x="243.941" y="242.295" width="4.42212" height="249.96" filterUnits="userSpaceOnUse" color-interpolation-filters="sRGB">
<feFlood flood-opacity="0" result="BackgroundImageFix"/>
<feBlend mode="normal" in="SourceGraphic" in2="BackgroundImageFix" result="shape"/>
<feGaussianBlur stdDeviation="0.5" result="effect1_foregroundBlur_1185_4028"/>
</filter>
<filter id="filter57_f_1185_4028" x="279.136" y="275.01" width="8.42212" height="253.96" filterUnits="userSpaceOnUse" color-interpolation-filters="sRGB">
<feFlood flood-opacity="0" result="BackgroundImageFix"/>
<feBlend mode="normal" in="SourceGraphic" in2="BackgroundImageFix" result="shape"/>
<feGaussianBlur stdDeviation="1.5" result="effect1_foregroundBlur_1185_4028"/>
</filter>
<filter id="filter58_f_1185_4028" x="331.968" y="193.942" width="4.42212" height="249.96" filterUnits="userSpaceOnUse" color-interpolation-filters="sRGB">
<feFlood flood-opacity="0" result="BackgroundImageFix"/>
<feBlend mode="normal" in="SourceGraphic" in2="BackgroundImageFix" result="shape"/>
<feGaussianBlur stdDeviation="0.5" result="effect1_foregroundBlur_1185_4028"/>
</filter>
<filter id="filter59_f_1185_4028" x="273.937" y="185.503" width="6.42212" height="251.96" filterUnits="userSpaceOnUse" color-interpolation-filters="sRGB">
<feFlood flood-opacity="0" result="BackgroundImageFix"/>
<feBlend mode="normal" in="SourceGraphic" in2="BackgroundImageFix" result="shape"/>
<feGaussianBlur stdDeviation="1" result="effect1_foregroundBlur_1185_4028"/>
</filter>
<filter id="filter60_f_1185_4028" x="182.67" y="200.86" width="10.4221" height="255.96" filterUnits="userSpaceOnUse" color-interpolation-filters="sRGB">
<feFlood flood-opacity="0" result="BackgroundImageFix"/>
<feBlend mode="normal" in="SourceGraphic" in2="BackgroundImageFix" result="shape"/>
<feGaussianBlur stdDeviation="2" result="effect1_foregroundBlur_1185_4028"/>
</filter>
<filter id="filter61_f_1185_4028" x="203.267" y="181.783" width="6.42212" height="251.96" filterUnits="userSpaceOnUse" color-interpolation-filters="sRGB">
<feFlood flood-opacity="0" result="BackgroundImageFix"/>
<feBlend mode="normal" in="SourceGraphic" in2="BackgroundImageFix" result="shape"/>
<feGaussianBlur stdDeviation="1" result="effect1_foregroundBlur_1185_4028"/>
</filter>
<filter id="filter62_f_1185_4028" x="346.326" y="245.494" width="10.4221" height="255.96" filterUnits="userSpaceOnUse" color-interpolation-filters="sRGB">
<feFlood flood-opacity="0" result="BackgroundImageFix"/>
<feBlend mode="normal" in="SourceGraphic" in2="BackgroundImageFix" result="shape"/>
<feGaussianBlur stdDeviation="2" result="effect1_foregroundBlur_1185_4028"/>
</filter>
<filter id="filter63_f_1185_4028" x="140.516" y="259.132" width="10.4221" height="255.96" filterUnits="userSpaceOnUse" color-interpolation-filters="sRGB">
<feFlood flood-opacity="0" result="BackgroundImageFix"/>
<feBlend mode="normal" in="SourceGraphic" in2="BackgroundImageFix" result="shape"/>
<feGaussianBlur stdDeviation="2" result="effect1_foregroundBlur_1185_4028"/>
</filter>
<filter id="filter64_f_1185_4028" x="304.172" y="265.331" width="10.4221" height="255.96" filterUnits="userSpaceOnUse" color-interpolation-filters="sRGB">
<feFlood flood-opacity="0" result="BackgroundImageFix"/>
<feBlend mode="normal" in="SourceGraphic" in2="BackgroundImageFix" result="shape"/>
<feGaussianBlur stdDeviation="2" result="effect1_foregroundBlur_1185_4028"/>
</filter>
<filter id="filter65_f_1185_4028" x="299.213" y="269.05" width="10.4221" height="255.96" filterUnits="userSpaceOnUse" color-interpolation-filters="sRGB">
<feFlood flood-opacity="0" result="BackgroundImageFix"/>
<feBlend mode="normal" in="SourceGraphic" in2="BackgroundImageFix" result="shape"/>
<feGaussianBlur stdDeviation="2" result="effect1_foregroundBlur_1185_4028"/>
</filter>
<filter id="filter66_f_1185_4028" x="147.955" y="210.779" width="10.4221" height="255.96" filterUnits="userSpaceOnUse" color-interpolation-filters="sRGB">
<feFlood flood-opacity="0" result="BackgroundImageFix"/>
<feBlend mode="normal" in="SourceGraphic" in2="BackgroundImageFix" result="shape"/>
<feGaussianBlur stdDeviation="2" result="effect1_foregroundBlur_1185_4028"/>
</filter>
<filter id="filter67_f_1185_4028" x="364.443" y="231.376" width="6.42212" height="251.96" filterUnits="userSpaceOnUse" color-interpolation-filters="sRGB">
<feFlood flood-opacity="0" result="BackgroundImageFix"/>
<feBlend mode="normal" in="SourceGraphic" in2="BackgroundImageFix" result="shape"/>
<feGaussianBlur stdDeviation="1" result="effect1_foregroundBlur_1185_4028"/>
</filter>
<filter id="filter68_f_1185_4028" x="181.43" y="184.747" width="21.6379" height="27.8371" filterUnits="userSpaceOnUse" color-interpolation-filters="sRGB">
<feFlood flood-opacity="0" result="BackgroundImageFix"/>
<feBlend mode="normal" in="SourceGraphic" in2="BackgroundImageFix" result="shape"/>
<feGaussianBlur stdDeviation="2" result="effect1_foregroundBlur_1185_4028"/>
</filter>
<filter id="filter69_d_1185_4028" x="106" y="87" width="294" height="493.611" filterUnits="userSpaceOnUse" color-interpolation-filters="sRGB">
<feFlood flood-opacity="0" result="BackgroundImageFix"/>
<feColorMatrix in="SourceAlpha" type="matrix" values="0 0 0 0 0 0 0 0 0 0 0 0 0 0 0 0 0 0 127 0" result="hardAlpha"/>
<feOffset/>
<feGaussianBlur stdDeviation="5"/>
<feComposite in2="hardAlpha" operator="out"/>
<feColorMatrix type="matrix" values="0 0 0 0 0.844365 0 0 0 0 1 0 0 0 0 0.8 0 0 0 1 0"/>
<feBlend mode="normal" in2="BackgroundImageFix" result="effect1_dropShadow_1185_4028"/>
<feBlend mode="normal" in="SourceGraphic" in2="effect1_dropShadow_1185_4028" result="shape"/>
</filter>
<linearGradient id="paint0_linear_1185_4028" x1="298.253" y1="189.986" x2="300.176" y2="437.943" gradientUnits="userSpaceOnUse">
<stop stop-color="white"/>
<stop offset="1" stop-color="white" stop-opacity="0"/>
</linearGradient>
<linearGradient id="paint1_linear_1185_4028" x1="222.625" y1="207.344" x2="225.027" y2="517.289" gradientUnits="userSpaceOnUse">
<stop stop-color="white"/>
<stop offset="1" stop-color="white" stop-opacity="0"/>
</linearGradient>
<linearGradient id="paint2_linear_1185_4028" x1="263.539" y1="254.457" x2="265.941" y2="564.402" gradientUnits="userSpaceOnUse">
<stop stop-color="white"/>
<stop offset="1" stop-color="white" stop-opacity="0"/>
</linearGradient>
<linearGradient id="paint3_linear_1185_4028" x1="321.81" y1="254.457" x2="324.213" y2="564.402" gradientUnits="userSpaceOnUse">
<stop stop-color="white"/>
<stop offset="1" stop-color="white" stop-opacity="0"/>
</linearGradient>
<linearGradient id="paint4_linear_1185_4028" x1="163.113" y1="278.014" x2="165.516" y2="587.959" gradientUnits="userSpaceOnUse">
<stop stop-color="white"/>
<stop offset="1" stop-color="white" stop-opacity="0"/>
</linearGradient>
<linearGradient id="paint5_linear_1185_4028" x1="158.154" y1="281.733" x2="160.556" y2="591.678" gradientUnits="userSpaceOnUse">
<stop stop-color="white"/>
<stop offset="1" stop-color="white" stop-opacity="0"/>
</linearGradient>
<linearGradient id="paint6_linear_1185_4028" x1="351.566" y1="244.538" x2="353.968" y2="554.484" gradientUnits="userSpaceOnUse">
<stop stop-color="white"/>
<stop offset="1" stop-color="white" stop-opacity="0"/>
</linearGradient>
<linearGradient id="paint7_linear_1185_4028" x1="346.606" y1="248.258" x2="349.009" y2="558.203" gradientUnits="userSpaceOnUse">
<stop stop-color="white"/>
<stop offset="1" stop-color="white" stop-opacity="0"/>
</linearGradient>
<linearGradient id="paint8_linear_1185_4028" x1="226.344" y1="248.258" x2="226.344" y2="558.213" gradientUnits="userSpaceOnUse">
<stop stop-color="#B6FA96"/>
<stop offset="1" stop-color="white" stop-opacity="0"/>
</linearGradient>
<linearGradient id="paint9_linear_1185_4028" x1="176.751" y1="304.05" x2="176.751" y2="614.005" gradientUnits="userSpaceOnUse">
<stop stop-color="#B6FA96"/>
<stop offset="1" stop-color="white" stop-opacity="0"/>
</linearGradient>
<linearGradient id="paint10_linear_1185_4028" x1="216.425" y1="249.498" x2="216.425" y2="559.452" gradientUnits="userSpaceOnUse">
<stop stop-color="#B6FA96"/>
<stop offset="1" stop-color="white" stop-opacity="0"/>
</linearGradient>
<linearGradient id="paint11_linear_1185_4028" x1="236.262" y1="249.498" x2="236.262" y2="559.452" gradientUnits="userSpaceOnUse">
<stop stop-color="#B6FA96"/>
<stop offset="1" stop-color="white" stop-opacity="0"/>
</linearGradient>
<linearGradient id="paint12_linear_1185_4028" x1="321.81" y1="170.149" x2="324.213" y2="480.095" gradientUnits="userSpaceOnUse">
<stop stop-color="white"/>
<stop offset="1" stop-color="white" stop-opacity="0"/>
</linearGradient>
<linearGradient id="paint13_linear_1185_4028" x1="309.412" y1="197.425" x2="311.815" y2="507.371" gradientUnits="userSpaceOnUse">
<stop stop-color="white"/>
<stop offset="1" stop-color="white" stop-opacity="0"/>
</linearGradient>
<linearGradient id="paint14_linear_1185_4028" x1="258.579" y1="203.624" x2="260.982" y2="513.57" gradientUnits="userSpaceOnUse">
<stop stop-color="white"/>
<stop offset="1" stop-color="white" stop-opacity="0"/>
</linearGradient>
<linearGradient id="paint15_linear_1185_4028" x1="318.091" y1="294.131" x2="318.091" y2="542.095" gradientUnits="userSpaceOnUse">
<stop stop-color="white"/>
<stop offset="1" stop-color="white" stop-opacity="0"/>
</linearGradient>
<linearGradient id="paint16_linear_1185_4028" x1="177.991" y1="218.502" x2="177.991" y2="466.466" gradientUnits="userSpaceOnUse">
<stop stop-color="white"/>
<stop offset="1" stop-color="white" stop-opacity="0"/>
</linearGradient>
<linearGradient id="paint17_linear_1185_4028" x1="196.588" y1="235.86" x2="196.588" y2="483.824" gradientUnits="userSpaceOnUse">
<stop stop-color="white"/>
<stop offset="1" stop-color="white" stop-opacity="0"/>
</linearGradient>
<linearGradient id="paint18_linear_1185_4028" x1="180.471" y1="233.38" x2="180.471" y2="481.344" gradientUnits="userSpaceOnUse">
<stop stop-color="white"/>
<stop offset="1" stop-color="white" stop-opacity="0"/>
</linearGradient>
<linearGradient id="paint19_linear_1185_4028" x1="187.909" y1="237.1" x2="187.909" y2="485.063" gradientUnits="userSpaceOnUse">
<stop stop-color="white"/>
<stop offset="1" stop-color="white" stop-opacity="0"/>
</linearGradient>
<linearGradient id="paint20_linear_1185_4028" x1="200.308" y1="206.104" x2="200.308" y2="454.068" gradientUnits="userSpaceOnUse">
<stop stop-color="white"/>
<stop offset="1" stop-color="white" stop-opacity="0"/>
</linearGradient>
<linearGradient id="paint21_linear_1185_4028" x1="246.181" y1="281.733" x2="246.181" y2="529.697" gradientUnits="userSpaceOnUse">
<stop stop-color="white"/>
<stop offset="1" stop-color="white" stop-opacity="0"/>
</linearGradient>
<linearGradient id="paint22_linear_1185_4028" x1="241.222" y1="197.425" x2="241.222" y2="445.389" gradientUnits="userSpaceOnUse">
<stop stop-color="white"/>
<stop offset="1" stop-color="white" stop-opacity="0"/>
</linearGradient>
<linearGradient id="paint23_linear_1185_4028" x1="159.394" y1="248.258" x2="159.394" y2="496.222" gradientUnits="userSpaceOnUse">
<stop stop-color="white"/>
<stop offset="1" stop-color="white" stop-opacity="0"/>
</linearGradient>
<linearGradient id="paint24_linear_1185_4028" x1="155.674" y1="276.774" x2="155.674" y2="524.738" gradientUnits="userSpaceOnUse">
<stop stop-color="white"/>
<stop offset="1" stop-color="white" stop-opacity="0"/>
</linearGradient>
<linearGradient id="paint25_linear_1185_4028" x1="200.308" y1="188.747" x2="200.308" y2="436.71" gradientUnits="userSpaceOnUse">
<stop stop-color="#B6FA96"/>
<stop offset="1" stop-color="white" stop-opacity="0"/>
</linearGradient>
<linearGradient id="paint26_linear_1185_4028" x1="220.145" y1="196.186" x2="220.145" y2="444.149" gradientUnits="userSpaceOnUse">
<stop stop-color="#B6FA96"/>
<stop offset="1" stop-color="white" stop-opacity="0"/>
</linearGradient>
<linearGradient id="paint27_linear_1185_4028" x1="238.742" y1="259.416" x2="238.742" y2="507.38" gradientUnits="userSpaceOnUse">
<stop stop-color="white"/>
<stop offset="1" stop-color="white" stop-opacity="0"/>
</linearGradient>
<linearGradient id="paint28_linear_1185_4028" x1="315.611" y1="230.9" x2="315.611" y2="478.864" gradientUnits="userSpaceOnUse">
<stop stop-color="#B6FA96"/>
<stop offset="1" stop-color="white" stop-opacity="0"/>
</linearGradient>
<linearGradient id="paint29_linear_1185_4028" x1="283.375" y1="306.529" x2="283.375" y2="554.493" gradientUnits="userSpaceOnUse">
<stop stop-color="#B6FA96"/>
<stop offset="1" stop-color="white" stop-opacity="0"/>
</linearGradient>
<linearGradient id="paint30_linear_1185_4028" x1="300.733" y1="218.502" x2="300.733" y2="466.466" gradientUnits="userSpaceOnUse">
<stop stop-color="#B6FA96"/>
<stop offset="1" stop-color="white" stop-opacity="0"/>
</linearGradient>
<linearGradient id="paint31_linear_1185_4028" x1="146.995" y1="214.783" x2="146.995" y2="462.747" gradientUnits="userSpaceOnUse">
<stop stop-color="#B6FA96"/>
<stop offset="1" stop-color="white" stop-opacity="0"/>
</linearGradient>
<linearGradient id="paint32_linear_1185_4028" x1="336.743" y1="236.323" x2="338.665" y2="484.279" gradientUnits="userSpaceOnUse">
<stop stop-color="white"/>
<stop offset="1" stop-color="white" stop-opacity="0"/>
</linearGradient>
<linearGradient id="paint33_linear_1185_4028" x1="355.285" y1="207.344" x2="357.207" y2="455.3" gradientUnits="userSpaceOnUse">
<stop stop-color="white"/>
<stop offset="1" stop-color="white" stop-opacity="0"/>
</linearGradient>
<linearGradient id="paint34_linear_1185_4028" x1="363.964" y1="207.344" x2="365.886" y2="455.3" gradientUnits="userSpaceOnUse">
<stop stop-color="white"/>
<stop offset="1" stop-color="white" stop-opacity="0"/>
</linearGradient>
<linearGradient id="paint35_linear_1185_4028" x1="293.294" y1="217.262" x2="295.216" y2="465.219" gradientUnits="userSpaceOnUse">
<stop stop-color="white"/>
<stop offset="1" stop-color="white" stop-opacity="0"/>
</linearGradient>
<linearGradient id="paint36_linear_1185_4028" x1="273.457" y1="216.023" x2="275.379" y2="463.979" gradientUnits="userSpaceOnUse">
<stop stop-color="white"/>
<stop offset="1" stop-color="white" stop-opacity="0"/>
</linearGradient>
<linearGradient id="paint37_linear_1185_4028" x1="342.887" y1="261.896" x2="344.809" y2="509.852" gradientUnits="userSpaceOnUse">
<stop stop-color="white"/>
<stop offset="1" stop-color="white" stop-opacity="0"/>
</linearGradient>
<linearGradient id="paint38_linear_1185_4028" x1="273.457" y1="265.615" x2="275.379" y2="513.572" gradientUnits="userSpaceOnUse">
<stop stop-color="white"/>
<stop offset="1" stop-color="white" stop-opacity="0"/>
</linearGradient>
<linearGradient id="paint39_linear_1185_4028" x1="259.819" y1="261.896" x2="261.741" y2="509.852" gradientUnits="userSpaceOnUse">
<stop stop-color="white"/>
<stop offset="1" stop-color="white" stop-opacity="0"/>
</linearGradient>
<linearGradient id="paint40_linear_1185_4028" x1="244.941" y1="243.299" x2="246.863" y2="491.255" gradientUnits="userSpaceOnUse">
<stop stop-color="white"/>
<stop offset="1" stop-color="white" stop-opacity="0"/>
</linearGradient>
<linearGradient id="paint41_linear_1185_4028" x1="266.018" y1="264.376" x2="267.94" y2="512.332" gradientUnits="userSpaceOnUse">
<stop stop-color="white"/>
<stop offset="1" stop-color="white" stop-opacity="0"/>
</linearGradient>
<linearGradient id="paint42_linear_1185_4028" x1="284.615" y1="214.783" x2="286.538" y2="462.739" gradientUnits="userSpaceOnUse">
<stop stop-color="white"/>
<stop offset="1" stop-color="white" stop-opacity="0"/>
</linearGradient>
<linearGradient id="paint43_linear_1185_4028" x1="282.136" y1="278.014" x2="284.058" y2="525.97" gradientUnits="userSpaceOnUse">
<stop stop-color="white"/>
<stop offset="1" stop-color="white" stop-opacity="0"/>
</linearGradient>
<linearGradient id="paint44_linear_1185_4028" x1="332.968" y1="194.946" x2="334.89" y2="442.902" gradientUnits="userSpaceOnUse">
<stop stop-color="white"/>
<stop offset="1" stop-color="white" stop-opacity="0"/>
</linearGradient>
<linearGradient id="paint45_linear_1185_4028" x1="275.937" y1="187.507" x2="277.859" y2="435.463" gradientUnits="userSpaceOnUse">
<stop stop-color="white"/>
<stop offset="1" stop-color="white" stop-opacity="0"/>
</linearGradient>
<linearGradient id="paint46_linear_1185_4028" x1="257.339" y1="223.462" x2="259.262" y2="471.418" gradientUnits="userSpaceOnUse">
<stop stop-color="white"/>
<stop offset="1" stop-color="white" stop-opacity="0"/>
</linearGradient>
<linearGradient id="paint47_linear_1185_4028" x1="186.67" y1="204.864" x2="188.592" y2="452.821" gradientUnits="userSpaceOnUse">
<stop stop-color="white"/>
<stop offset="1" stop-color="white" stop-opacity="0"/>
</linearGradient>
<linearGradient id="paint48_linear_1185_4028" x1="205.267" y1="183.787" x2="207.189" y2="431.744" gradientUnits="userSpaceOnUse">
<stop stop-color="white"/>
<stop offset="1" stop-color="white" stop-opacity="0"/>
</linearGradient>
<linearGradient id="paint49_linear_1185_4028" x1="175.511" y1="209.824" x2="177.433" y2="457.78" gradientUnits="userSpaceOnUse">
<stop stop-color="white"/>
<stop offset="1" stop-color="white" stop-opacity="0"/>
</linearGradient>
<linearGradient id="paint50_linear_1185_4028" x1="186.67" y1="185.027" x2="188.592" y2="432.984" gradientUnits="userSpaceOnUse">
<stop stop-color="white"/>
<stop offset="1" stop-color="white" stop-opacity="0"/>
</linearGradient>
<linearGradient id="paint51_linear_1185_4028" x1="253.62" y1="172.629" x2="255.542" y2="420.585" gradientUnits="userSpaceOnUse">
<stop stop-color="white"/>
<stop offset="1" stop-color="white" stop-opacity="0"/>
</linearGradient>
<linearGradient id="paint52_linear_1185_4028" x1="350.326" y1="249.498" x2="352.248" y2="497.454" gradientUnits="userSpaceOnUse">
<stop stop-color="white"/>
<stop offset="1" stop-color="white" stop-opacity="0"/>
</linearGradient>
<linearGradient id="paint53_linear_1185_4028" x1="144.516" y1="263.136" x2="146.438" y2="511.092" gradientUnits="userSpaceOnUse">
<stop stop-color="white"/>
<stop offset="1" stop-color="white" stop-opacity="0"/>
</linearGradient>
<linearGradient id="paint54_linear_1185_4028" x1="308.172" y1="269.335" x2="310.094" y2="517.291" gradientUnits="userSpaceOnUse">
<stop stop-color="white"/>
<stop offset="1" stop-color="white" stop-opacity="0"/>
</linearGradient>
<linearGradient id="paint55_linear_1185_4028" x1="303.213" y1="273.054" x2="305.135" y2="521.011" gradientUnits="userSpaceOnUse">
<stop stop-color="white"/>
<stop offset="1" stop-color="white" stop-opacity="0"/>
</linearGradient>
<linearGradient id="paint56_linear_1185_4028" x1="151.955" y1="214.783" x2="153.877" y2="462.739" gradientUnits="userSpaceOnUse">
<stop stop-color="white"/>
<stop offset="1" stop-color="white" stop-opacity="0"/>
</linearGradient>
<linearGradient id="paint57_linear_1185_4028" x1="366.443" y1="233.38" x2="368.366" y2="481.336" gradientUnits="userSpaceOnUse">
<stop stop-color="white"/>
<stop offset="1" stop-color="white" stop-opacity="0"/>
</linearGradient>
</defs>
</svg>
