<svg width="107" height="179" viewBox="0 0 107 179" fill="none" xmlns="http://www.w3.org/2000/svg">
<path d="M90.7739 35V26.6667H83.4523V22.7941H90.7739V21.6176L79 0H83.8481L93 17.2059L102.201 0H107L95.2261 21.4216V22.7941H102.498V26.6667H95.2261V35H90.7739Z" fill="#036FE7"/>
<path d="M0 84V48H12.3988C16.3462 48 19.4332 48.9844 21.6599 50.9533C23.8866 52.8883 25 55.8925 25 59.9661C25 62.0368 24.6289 63.8529 23.8866 65.4144C23.1781 66.976 22.1829 68.2659 20.9008 69.2843C19.8212 70.1669 18.4717 70.8628 16.8522 71.372C15.2328 71.8812 13.4447 72.1358 11.4879 72.1358H4.40283V84H0ZM4.40283 68.1132H11.2854C12.5675 68.1132 13.8158 67.9604 15.0304 67.6549C16.2449 67.3154 17.2402 66.7892 18.0162 66.0764C18.7922 65.3975 19.3995 64.5658 19.8381 63.5813C20.2767 62.5969 20.496 61.3239 20.496 59.7624C20.496 54.6025 17.7294 52.0226 12.1964 52.0226H4.40283V68.1132Z" fill="#036FE7"/>
<line x1="92" y1="32" x2="92" y2="197" stroke="url(#paint0_linear_1191_4493)" stroke-width="2"/>
<line x1="1" y1="83" x2="0.999994" y2="215" stroke="url(#paint1_linear_1191_4493)" stroke-width="2"/>
<path d="M57.7136 29.8136C54.5583 29.8136 51.5782 30.0367 48.7735 30.483C45.9687 30.8549 43.3042 31.4127 40.7799 32.1565C38.3258 32.8258 35.9768 33.5696 33.733 34.3878V25.2395C35.8366 24.4213 38.0453 23.7147 40.3592 23.1197C42.6731 22.4503 45.2675 21.9297 48.1424 21.5578C51.0173 21.1859 54.2778 21 57.9239 21C63.8139 21 69.0027 21.9669 73.4903 23.9007C78.048 25.8345 81.8344 28.6236 84.8495 32.268C87.8646 35.9125 90.1435 40.2635 91.6861 45.3211C93.2287 50.3043 94 55.9197 94 62.1673C94 68.3406 93.2638 73.956 91.7913 79.0136C90.3188 83.9968 88.1451 88.2735 85.2702 91.8435C82.4655 95.4136 78.9245 98.1655 74.6473 100.099C70.4401 102.033 65.6019 103 60.1327 103C52.7001 103 46.6699 101.327 42.0421 97.9796C37.4844 94.5583 34.1537 89.7982 32.0502 83.6993C30.0167 77.5261 29 70.3116 29 62.0558V58.2626H84.0081C83.6575 52.2381 82.4655 47.1061 80.432 42.8667C78.4687 38.6272 75.5939 35.3918 71.8074 33.1605C68.0912 30.9292 63.3932 29.8136 57.7136 29.8136ZM60.1327 94.1864C64.7605 94.1864 68.7923 93.1451 72.2282 91.0626C75.664 88.98 78.3986 85.9306 80.432 81.9143C82.4655 77.8236 83.6575 72.8776 84.0081 67.0762H39.0971C39.0971 72.6544 39.7632 77.4889 41.0955 81.5796C42.4277 85.5959 44.6365 88.7197 47.7217 90.951C50.8069 93.1079 54.9439 94.1864 60.1327 94.1864Z" fill="#B6FA96"/>
<line x1="72" y1="98" x2="72" y2="229" stroke="url(#paint2_linear_1191_4493)" stroke-width="2"/>
<defs>
<linearGradient id="paint0_linear_1191_4493" x1="91" y1="32" x2="91" y2="197" gradientUnits="userSpaceOnUse">
<stop stop-color="#036FE7"/>
<stop offset="1" stop-color="white" stop-opacity="0"/>
</linearGradient>
<linearGradient id="paint1_linear_1191_4493" x1="0" y1="83" x2="-5.83501e-06" y2="215" gradientUnits="userSpaceOnUse">
<stop stop-color="#036FE7"/>
<stop offset="1" stop-color="white" stop-opacity="0"/>
</linearGradient>
<linearGradient id="paint2_linear_1191_4493" x1="71" y1="98" x2="71" y2="229" gradientUnits="userSpaceOnUse">
<stop stop-color="#B6FA96"/>
<stop offset="1" stop-color="white" stop-opacity="0"/>
</linearGradient>
</defs>
</svg>
