<svg width="60" height="61" viewBox="0 0 60 61" fill="none" xmlns="http://www.w3.org/2000/svg">
<path fill-rule="evenodd" clip-rule="evenodd" d="M30 7.375C17.2284 7.375 6.875 17.7284 6.875 30.5C6.875 43.2716 17.2284 53.625 30 53.625C42.7716 53.625 53.125 43.2716 53.125 30.5C53.125 17.7284 42.7716 7.375 30 7.375ZM3.125 30.5C3.125 15.6573 15.1573 3.625 30 3.625C44.8427 3.625 56.875 15.6573 56.875 30.5C56.875 45.3427 44.8427 57.375 30 57.375C15.1573 57.375 3.125 45.3427 3.125 30.5Z" fill="white" fill-opacity="0.5"/>
<path fill-rule="evenodd" clip-rule="evenodd" d="M25.5262 20.3473C26.2594 19.6161 27.4466 19.6178 28.1778 20.351L36.9778 29.176C37.7075 29.9078 37.7075 31.0921 36.9778 31.8239L28.1778 40.6489C27.4466 41.3822 26.2594 41.3839 25.5262 40.6527C24.7929 39.9215 24.7912 38.7343 25.5224 38.001L33.0022 30.5L25.5224 22.9989C24.7912 22.2657 24.7929 21.0785 25.5262 20.3473Z" fill="white" fill-opacity="0.5"/>
</svg>
