<svg width="24" height="24" viewBox="0 0 24 24" fill="none" xmlns="http://www.w3.org/2000/svg">
<path d="M15.5819 12C15.5819 13.98 13.9819 15.58 12.0019 15.58C10.0219 15.58 8.42188 13.98 8.42188 12C8.42188 10.02 10.0219 8.42 12.0019 8.42C13.9819 8.42 15.5819 10.02 15.5819 12Z" stroke="#036FE7" stroke-width="1.5" stroke-linecap="round" stroke-linejoin="round"/>
<path d="M11.9998 20.2707C15.5298 20.2707 18.8198 18.1907 21.1098 14.5907C22.0098 13.1807 22.0098 10.8107 21.1098 9.4007C18.8198 5.8007 15.5298 3.7207 11.9998 3.7207C8.46984 3.7207 5.17984 5.8007 2.88984 9.4007C1.98984 10.8107 1.98984 13.1807 2.88984 14.5907C5.17984 18.1907 8.46984 20.2707 11.9998 20.2707Z" stroke="#036FE7" stroke-width="1.5" stroke-linecap="round" stroke-linejoin="round"/>
</svg>
