<svg width="50" height="50" viewBox="0 0 50 50" fill="none" xmlns="http://www.w3.org/2000/svg">
<circle cx="25" cy="25" r="24.5" fill="#036FE7"/>
<path d="M16.77 24.5C15.98 23.55 15.5 22.33 15.5 21C15.5 17.98 17.97 15.5 21 15.5H26C29.02 15.5 31.5 17.98 31.5 21C31.5 24.02 29.03 26.5 26 26.5H23.5" stroke="white" stroke-width="1.5" stroke-linecap="round" stroke-linejoin="round"/>
<path d="M34.23 24.5C35.02 25.45 35.5 26.67 35.5 28C35.5 31.02 33.03 33.5 30 33.5H25C21.98 33.5 19.5 31.02 19.5 28C19.5 24.98 21.97 22.5 25 22.5H27.5" stroke="white" stroke-width="1.5" stroke-linecap="round" stroke-linejoin="round"/>
</svg>
