<svg width="32" height="32" viewBox="0 0 32 32" fill="none" xmlns="http://www.w3.org/2000/svg">
<path d="M13.1713 30.8087H13.144C13.0156 30.8033 12.8914 30.761 12.7865 30.6867C12.6816 30.6124 12.6004 30.5094 12.5527 30.39L1.23866 2.10533C1.19017 1.98417 1.17829 1.85145 1.20452 1.72362C1.23074 1.59578 1.2939 1.47846 1.38618 1.38618C1.47846 1.2939 1.59578 1.23074 1.72362 1.20452C1.85145 1.17829 1.98417 1.19017 2.10533 1.23866L30.39 12.552C30.5095 12.5996 30.6127 12.6808 30.6871 12.7858C30.7616 12.8907 30.804 13.015 30.8094 13.1436C30.8147 13.2721 30.7828 13.3995 30.7173 13.5103C30.6519 13.6211 30.5558 13.7106 30.4407 13.768L22.4667 17.7533L28.7267 24.0133C28.8516 24.1383 28.9219 24.3079 28.9219 24.4847C28.9219 24.6614 28.8516 24.831 28.7267 24.956L24.956 28.7273C24.831 28.8523 24.6614 28.9225 24.4847 28.9225C24.3079 28.9225 24.1383 28.8523 24.0133 28.7273L17.7533 22.4673L13.7667 30.44C13.7112 30.5506 13.6261 30.6436 13.5209 30.7086C13.4156 30.7736 13.2944 30.808 13.1707 30.808L13.1713 30.8087ZM3.05466 3.05399L13.2393 28.516L16.9753 21.044C17.0226 20.9496 17.0916 20.8677 17.1766 20.8052C17.2617 20.7426 17.3604 20.7012 17.4647 20.6843C17.5689 20.6674 17.6756 20.6754 17.7761 20.7078C17.8766 20.7402 17.968 20.796 18.0427 20.8707L24.4853 27.3133L27.314 24.4853L20.8713 18.0427C20.7966 17.968 20.7406 17.8766 20.7082 17.776C20.6757 17.6754 20.6676 17.5686 20.6845 17.4643C20.7014 17.36 20.7429 17.2612 20.8055 17.176C20.8682 17.0909 20.9501 17.0219 21.0447 16.9747L28.5167 13.2387L3.05466 3.05399Z" fill="#00254D"/>
</svg>
