<svg width="21" height="24" viewBox="0 0 21 24" fill="none" xmlns="http://www.w3.org/2000/svg">
<path d="M14.4664 4.92479C13.9196 4.92426 13.3954 4.70689 13.0087 4.32035C12.6219 3.93381 12.4043 3.40966 12.4035 2.86288V0H3.19088C2.47721 0 1.79279 0.283502 1.28815 0.788141C0.783511 1.29278 0.5 1.97722 0.5 2.69088V18.9122C0.5 19.6259 0.783511 20.3103 1.28815 20.815C1.79279 21.3196 2.47721 21.6031 3.19088 21.6031H14.2504C14.9641 21.6031 15.6485 21.3196 16.1532 20.815C16.6578 20.3103 16.9413 19.6259 16.9413 18.9122V4.92479H14.4664Z" fill="#EBF5FF"/>
<path d="M16.9401 4.92479H14.4652C13.9185 4.92426 13.3942 4.70689 13.0075 4.32035C12.6208 3.93381 12.4031 3.40966 12.4023 2.86288V0L16.9401 4.92479Z" fill="#8EC6FE"/>
<path d="M13.5581 15.0824H3.23456C3.13858 15.0775 3.04818 15.0358 2.982 14.9661C2.91583 14.8965 2.87891 14.804 2.87891 14.7079C2.87891 14.6118 2.91583 14.5194 2.982 14.4497C3.04818 14.38 3.13858 14.3384 3.23456 14.3334H13.5581C13.6089 14.3308 13.6597 14.3386 13.7075 14.3562C13.7552 14.3738 13.7988 14.401 13.8357 14.436C13.8726 14.4711 13.9019 14.5132 13.922 14.56C13.9421 14.6067 13.9525 14.6571 13.9525 14.7079C13.9525 14.7588 13.9421 14.8091 13.922 14.8559C13.9019 14.9026 13.8726 14.9448 13.8357 14.9798C13.7988 15.0149 13.7552 15.042 13.7075 15.0597C13.6597 15.0773 13.6089 15.085 13.5581 15.0824Z" fill="#8EC6FE"/>
<path d="M13.5581 10.8595H3.23456C3.13858 10.8546 3.04818 10.813 2.982 10.7433C2.91583 10.6736 2.87891 10.5812 2.87891 10.4851C2.87891 10.389 2.91583 10.2965 2.982 10.2268C3.04818 10.1572 3.13858 10.1155 3.23456 10.1106H13.5581C13.6089 10.108 13.6597 10.1157 13.7075 10.1333C13.7552 10.151 13.7988 10.1781 13.8357 10.2131C13.8726 10.2482 13.9019 10.2904 13.922 10.3371C13.9421 10.3838 13.9525 10.4342 13.9525 10.4851C13.9525 10.5359 13.9421 10.5863 13.922 10.633C13.9019 10.6798 13.8726 10.7219 13.8357 10.757C13.7988 10.792 13.7552 10.8192 13.7075 10.8368C13.6597 10.8544 13.6089 10.8622 13.5581 10.8595Z" fill="#8EC6FE"/>
<path d="M13.5581 12.9715H3.23456C3.13858 12.9665 3.04818 12.9249 2.982 12.8552C2.91583 12.7855 2.87891 12.6931 2.87891 12.597C2.87891 12.5009 2.91583 12.4085 2.982 12.3388C3.04818 12.2691 3.13858 12.2275 3.23456 12.2225H13.5581C13.6089 12.2199 13.6597 12.2276 13.7075 12.2453C13.7552 12.2629 13.7988 12.2901 13.8357 12.3251C13.8726 12.3601 13.9019 12.4023 13.922 12.449C13.9421 12.4958 13.9525 12.5461 13.9525 12.597C13.9525 12.6479 13.9421 12.6982 13.922 12.745C13.9019 12.7917 13.8726 12.8339 13.8357 12.8689C13.7988 12.9039 13.7552 12.9311 13.7075 12.9487C13.6597 12.9664 13.6089 12.9741 13.5581 12.9715Z" fill="#8EC6FE"/>
<path d="M9.48627 8.74766H3.23456C3.13858 8.74269 3.04818 8.70108 2.982 8.63139C2.91583 8.56171 2.87891 8.46927 2.87891 8.37317C2.87891 8.27707 2.91583 8.18464 2.982 8.11495C3.04818 8.04527 3.13858 8.00365 3.23456 7.99869H9.48627C9.58224 8.00365 9.67267 8.04527 9.73885 8.11495C9.80503 8.18464 9.84192 8.27707 9.84192 8.37317C9.84192 8.46927 9.80503 8.56171 9.73885 8.63139C9.67267 8.70108 9.58224 8.74269 9.48627 8.74766Z" fill="#8EC6FE"/>
<path d="M9.48627 6.63572H3.23456C3.13858 6.63076 3.04818 6.58914 2.982 6.51945C2.91583 6.44977 2.87891 6.35733 2.87891 6.26123C2.87891 6.16513 2.91583 6.0727 2.982 6.00301C3.04818 5.93333 3.13858 5.89171 3.23456 5.88675H9.48627C9.58224 5.89171 9.67267 5.93333 9.73885 6.00301C9.80503 6.0727 9.84192 6.16513 9.84192 6.26123C9.84192 6.35733 9.80503 6.44977 9.73885 6.51945C9.67267 6.58914 9.58224 6.63076 9.48627 6.63572Z" fill="#8EC6FE"/>
<path d="M13.3747 5.88675H11.6068C11.2987 5.88675 11.0488 6.13657 11.0488 6.44473V8.21265C11.0488 8.52081 11.2987 8.77063 11.6068 8.77063H13.3747C13.6829 8.77063 13.9327 8.52081 13.9327 8.21265V6.44473C13.9327 6.13657 13.6829 5.88675 13.3747 5.88675Z" fill="#8EC6FE"/>
<path d="M18.8926 17.0603H6.38914C5.50221 17.0603 4.7832 17.7793 4.7832 18.6662V22.3941C4.7832 23.281 5.50221 24 6.38914 24H18.8926C19.7796 24 20.4986 23.281 20.4986 22.3941V18.6662C20.4986 17.7793 19.7796 17.0603 18.8926 17.0603Z" fill="#FF3E4C"/>
<path d="M8.88578 21.3371V22.0641H8.13281V21.3371H8.88578Z" fill="white"/>
<path d="M9.99164 21.0092V22.0641H9.26367V19.0573H10.4416C10.7996 19.0573 11.0719 19.1459 11.2586 19.3232C11.3534 19.4162 11.4274 19.5281 11.4758 19.6517C11.5242 19.7752 11.546 19.9076 11.5396 20.0402C11.5429 20.2151 11.4994 20.3877 11.4136 20.5402C11.3271 20.69 11.1975 20.8102 11.0416 20.8852C10.8544 20.9741 10.6487 21.0169 10.4416 21.0102L9.99164 21.0092ZM10.7996 20.0402C10.7996 19.7736 10.6536 19.6402 10.3616 19.6402H9.99164V20.4232H10.3616C10.6536 20.4259 10.7996 20.2982 10.7996 20.0402Z" fill="white"/>
<path d="M14.4124 21.3391C14.2868 21.5666 14.0973 21.7522 13.8674 21.8731C13.6094 22.0054 13.3223 22.0711 13.0324 22.0641H11.8965V19.0572H13.0324C13.3229 19.0502 13.6105 19.1144 13.8704 19.2442C14.0991 19.363 14.2877 19.5467 14.4124 19.7722C14.5366 20.0147 14.6014 20.2832 14.6014 20.5557C14.6014 20.8281 14.5366 21.0967 14.4124 21.3391ZM13.6294 21.1881C13.7817 21.0122 13.8655 20.7873 13.8655 20.5547C13.8655 20.322 13.7817 20.0971 13.6294 19.9212C13.4476 19.7615 13.21 19.6803 12.9684 19.6952H12.6235V21.4131H12.9734C13.2131 21.4267 13.4485 21.3459 13.6294 21.1881Z" fill="white"/>
<path d="M16.9736 19.0573V19.6362H15.7406V20.2952H16.6936V20.8482H15.7406V22.0641H15.0137V19.0573H16.9736Z" fill="white"/>
</svg>
