<svg width="49" height="49" viewBox="0 0 49 49" fill="none" xmlns="http://www.w3.org/2000/svg">
<path fill-rule="evenodd" clip-rule="evenodd" d="M0.5 24.5C0.5 37.7548 11.2452 48.5 24.5 48.5C37.7548 48.5 48.5 37.7548 48.5 24.5C48.5 11.2452 37.7548 0.5 24.5 0.5C11.2452 0.5 0.5 11.2452 0.5 24.5ZM20.1 35.5L20.5083 29.3823L20.508 29.382L31.6369 19.339C32.1253 18.9055 31.5303 18.6941 30.8819 19.0873L17.1473 27.7523L11.2147 25.9007C9.9335 25.5084 9.9243 24.628 11.5023 23.9951L34.6203 15.0809C35.6762 14.6015 36.6953 15.3345 36.2922 16.9505L32.3552 35.5031C32.0803 36.8215 31.2837 37.1368 30.18 36.5278L24.1827 32.0969L21.3 34.9C21.2909 34.9088 21.2819 34.9176 21.2729 34.9264C20.9505 35.2403 20.6837 35.5 20.1 35.5Z" fill="#00ADF8"/>
</svg>
