<svg width="48" height="49" viewBox="0 0 48 49" fill="none" xmlns="http://www.w3.org/2000/svg">
<circle cx="24" cy="24.2488" r="24" fill="white"/>
<path fill-rule="evenodd" clip-rule="evenodd" d="M0 24.2488C0 37.5036 10.7452 48.2488 24 48.2488C37.2548 48.2488 48 37.5036 48 24.2488C48 10.9939 37.2548 0.248779 24 0.248779C10.7452 0.248779 0 10.9939 0 24.2488ZM19.4984 35.0674L19.9047 28.9814L19.9043 28.9811L30.9756 18.9902C31.4615 18.5589 30.8695 18.3486 30.2245 18.7398L16.561 27.3599L10.6592 25.5178C9.38462 25.1276 9.37547 24.2518 10.9453 23.6221L33.9435 14.7541C34.9939 14.2772 36.0077 15.0064 35.6068 16.614L31.6902 35.0705C31.4167 36.3821 30.6242 36.6957 29.5262 36.0899L23.56 31.682L20.6922 34.4705C20.6832 34.4793 20.6742 34.4881 20.6652 34.4968C20.3445 34.8091 20.0791 35.0674 19.4984 35.0674Z" fill="#00ADF8"/>
</svg>
