<svg width="71" height="70" viewBox="0 0 71 70" fill="none" xmlns="http://www.w3.org/2000/svg">
<path fill-rule="evenodd" clip-rule="evenodd" d="M0.5 35C0.5 54.33 16.17 70 35.5 70C54.83 70 70.5 54.33 70.5 35C70.5 15.67 54.83 0 35.5 0C16.17 0 0.5 15.67 0.5 35ZM29.0833 51.0417L29.6788 42.1199L29.6783 42.1196L45.908 27.4735C46.6202 26.8414 45.7524 26.5331 44.8069 27.1065L24.7772 39.743L16.1255 37.0426C14.2572 36.4705 14.2437 35.1867 16.545 34.2636L50.2588 21.2637C51.7986 20.5647 53.2847 21.6336 52.6969 23.9903L46.9555 51.0462C46.5545 52.9688 45.3929 53.4286 43.7833 52.5405L35.0372 46.0788L30.8333 50.1667C30.82 50.1795 30.8069 50.1924 30.7937 50.2052C30.3235 50.6629 29.9345 51.0417 29.0833 51.0417Z" fill="#00ADF8"/>
</svg>
