<svg width="24" height="24" viewBox="0 0 24 24" fill="none" xmlns="http://www.w3.org/2000/svg">
<path d="M19.0593 18.6703L16.9193 14.4004L14.7793 18.6703" stroke="#6DA6E4" stroke-width="1.5" stroke-linecap="round" stroke-linejoin="round"/>
<path d="M15.1699 17.91H18.6899" stroke="#6DA6E4" stroke-width="1.5" stroke-linecap="round" stroke-linejoin="round"/>
<path d="M16.9201 22C14.1201 22 11.8401 19.73 11.8401 16.92C11.8401 14.12 14.1101 11.84 16.9201 11.84C19.7201 11.84 22.0001 14.11 22.0001 16.92C22.0001 19.73 19.7301 22 16.9201 22Z" stroke="#6DA6E4" stroke-width="1.5" stroke-linecap="round" stroke-linejoin="round"/>
<path d="M5.02 2H8.94C11.01 2 12.01 3.00002 11.96 5.02002V8.94C12.01 11.01 11.01 12.01 8.94 11.96H5.02C3 12 2 11 2 8.92999V5.01001C2 3.00001 3 2 5.02 2Z" stroke="#6DA6E4" stroke-width="1.5" stroke-linecap="round" stroke-linejoin="round"/>
<path d="M9.00922 5.84961H4.94922" stroke="#6DA6E4" stroke-width="1.5" stroke-linecap="round" stroke-linejoin="round"/>
<path d="M6.96875 5.16992V5.84991" stroke="#6DA6E4" stroke-width="1.5" stroke-linecap="round" stroke-linejoin="round"/>
<path d="M7.98946 5.83997C7.98946 7.58997 6.61945 9.00995 4.93945 9.00995" stroke="#6DA6E4" stroke-width="1.5" stroke-linecap="round" stroke-linejoin="round"/>
<path d="M9.01015 9.01001C8.28015 9.01001 7.62016 8.62 7.16016 8" stroke="#6DA6E4" stroke-width="1.5" stroke-linecap="round" stroke-linejoin="round"/>
<path d="M2 15C2 18.87 5.13 22 9 22L7.95 20.25" stroke="#6DA6E4" stroke-width="1.5" stroke-linecap="round" stroke-linejoin="round"/>
<path d="M22 9C22 5.13 18.87 2 15 2L16.05 3.75" stroke="#6DA6E4" stroke-width="1.5" stroke-linecap="round" stroke-linejoin="round"/>
</svg>
