<svg width="49" height="49" viewBox="0 0 49 49" fill="none" xmlns="http://www.w3.org/2000/svg">
<path fill-rule="evenodd" clip-rule="evenodd" d="M24.5 0.5C11.2452 0.5 0.5 11.2452 0.5 24.5C0.5 37.7548 11.2452 48.5 24.5 48.5C37.7548 48.5 48.5 37.7548 48.5 24.5C48.5 11.2452 37.7548 0.5 24.5 0.5ZM23.8316 20.838L23.7812 20.0075C23.6301 17.8551 24.9563 15.8891 27.0548 15.1265C27.827 14.8553 29.1364 14.8214 29.9926 15.0587C30.3283 15.1604 30.9663 15.4993 31.4195 15.8044L32.2421 16.3637L33.1486 16.0756C33.6523 15.923 34.3238 15.6688 34.6259 15.4993C34.9113 15.3468 35.1631 15.262 35.1631 15.3129C35.1631 15.601 34.542 16.584 34.0216 17.1263C33.3165 17.889 33.518 17.9568 34.9449 17.4483C35.8011 17.1602 35.8178 17.1602 35.65 17.4822C35.5492 17.6517 35.0288 18.2449 34.4748 18.7872C33.5347 19.7194 33.4844 19.8211 33.4844 20.6007C33.4844 21.804 32.9136 24.3123 32.3428 25.6851C31.2852 28.2612 29.0189 30.922 26.7526 32.2609C23.563 34.1422 19.3157 34.6167 15.74 33.5151C14.5481 33.1422 12.5 32.1931 12.5 32.0237C12.5 31.9728 13.1211 31.905 13.8766 31.8881C15.4546 31.8542 17.0326 31.4135 18.3756 30.6339L19.2822 30.0916L18.2413 29.7357C16.764 29.2272 15.4378 28.0578 15.1021 26.9562C15.0013 26.6003 15.0349 26.5833 15.975 26.5833L16.9487 26.5664L16.1261 26.1766C15.1524 25.6851 14.2627 24.8546 13.8262 24.0072C13.5072 23.3971 13.1044 21.8548 13.2219 21.7362C13.2554 21.6854 13.608 21.787 14.0109 21.9226C15.1692 22.3463 15.3203 22.2446 14.6488 21.5328C13.3897 20.2448 13.0036 18.3296 13.608 16.5162L13.8934 15.7027L15.0013 16.8043C17.2677 19.0245 19.9369 20.3465 22.9922 20.7363L23.8316 20.838Z" fill="#03AAF2"/>
</svg>
