<svg width="24" height="24" viewBox="0 0 24 24" fill="none" xmlns="http://www.w3.org/2000/svg">
<rect width="24" height="24" rx="12" fill="#EBF5FF"/>
<path fill-rule="evenodd" clip-rule="evenodd" d="M12.0003 5.83333C10.4355 5.83333 9.16699 7.10186 9.16699 8.66667C9.16699 10.2315 10.4355 11.5 12.0003 11.5C13.5651 11.5 14.8337 10.2315 14.8337 8.66667C14.8337 7.10186 13.5651 5.83333 12.0003 5.83333ZM8.16699 8.66667C8.16699 6.54958 9.88323 4.83333 12.0003 4.83333C14.1174 4.83333 15.8337 6.54958 15.8337 8.66667C15.8337 10.7838 14.1174 12.5 12.0003 12.5C9.88323 12.5 8.16699 10.7838 8.16699 8.66667Z" fill="#036FE7"/>
<path fill-rule="evenodd" clip-rule="evenodd" d="M5.77344 18.6667C5.77344 15.7194 8.66485 13.5 12.0001 13.5C15.3354 13.5 18.2268 15.7194 18.2268 18.6667C18.2268 18.9428 18.0029 19.1667 17.7268 19.1667C17.4506 19.1667 17.2268 18.9428 17.2268 18.6667C17.2268 16.4539 14.9849 14.5 12.0001 14.5C9.01535 14.5 6.77344 16.4539 6.77344 18.6667C6.77344 18.9428 6.54958 19.1667 6.27344 19.1667C5.9973 19.1667 5.77344 18.9428 5.77344 18.6667Z" fill="#036FE7"/>
</svg>
