<svg width="49" height="49" viewBox="0 0 49 49" fill="none" xmlns="http://www.w3.org/2000/svg">
<path fill-rule="evenodd" clip-rule="evenodd" d="M24.5 0.5C11.2452 0.5 0.5 11.2452 0.5 24.5C0.5 37.7548 11.2452 48.5 24.5 48.5C37.7548 48.5 48.5 37.7548 48.5 24.5C48.5 11.2452 37.7548 0.5 24.5 0.5ZM26.4541 32.0762C26.2175 32.3257 25.7555 32.3761 25.7555 32.3761H24.2254C24.2254 32.3761 20.8497 32.5752 17.876 29.537C14.6331 26.2222 11.7695 19.6455 11.7695 19.6455C11.7695 19.6455 11.6043 19.2141 11.7833 19.0064C11.9849 18.7717 12.5346 18.7569 12.5346 18.7569L16.1919 18.7336C16.1919 18.7336 16.5363 18.7889 16.7829 18.9671C16.987 19.1146 17.101 19.3887 17.101 19.3887C17.101 19.3887 17.692 20.8562 18.4745 22.1835C20.0033 24.7756 20.7145 25.3422 21.2329 25.0644C21.9892 24.6601 21.7625 21.4006 21.7625 21.4006C21.7625 21.4006 21.7763 20.2183 21.3819 19.691C21.0764 19.283 20.5004 19.1637 20.2462 19.1306C20.0396 19.1035 20.3777 18.634 20.8159 18.4239C21.4745 18.108 22.6365 18.0896 24.01 18.1031C25.0806 18.1141 25.3886 18.1793 25.8068 18.2788C26.7774 18.5087 26.7471 19.2455 26.6817 20.8357C26.6621 21.3113 26.6394 21.8631 26.6394 22.5006C26.6394 22.6439 26.6352 22.7966 26.6308 22.9537C26.6081 23.7683 26.5821 24.7012 27.129 25.0485C27.4095 25.2254 28.0944 25.0743 29.8085 22.2179C30.6211 20.8635 31.2296 19.2719 31.2296 19.2719C31.2296 19.2719 31.3636 18.988 31.5702 18.8663C31.7818 18.7422 32.0673 18.7803 32.0673 18.7803L35.9162 18.7569C35.9162 18.7569 37.0732 18.6205 37.2597 19.1343C37.4563 19.6713 36.8278 20.9274 35.2551 22.9849C33.7633 24.9371 33.0374 25.6558 33.104 26.2915C33.1527 26.756 33.6246 27.1761 34.5302 28.0006C36.4205 29.7235 36.9273 30.6299 37.049 30.8477C37.0591 30.8657 37.0665 30.879 37.0719 30.8877C37.9196 32.2679 36.1316 32.3761 36.1316 32.3761L32.7121 32.4228C32.7121 32.4228 31.9784 32.5654 31.0118 31.914C30.5054 31.573 30.0106 31.0162 29.5394 30.4858C28.8196 29.6758 28.1548 28.9276 27.5873 29.1043C26.6344 29.4018 26.6632 31.4162 26.6632 31.4162C26.6632 31.4162 26.6707 31.8476 26.4541 32.0762Z" fill="#036FE7"/>
</svg>
