<svg width="71" height="70" viewBox="0 0 71 70" fill="none" xmlns="http://www.w3.org/2000/svg">
<g clip-path="url(#clip0_427_12446)">
<path fill-rule="evenodd" clip-rule="evenodd" d="M44.0596 41.0397C43.6987 42.0526 41.9662 42.9757 41.1327 43.1004C40.3868 43.2119 39.4418 43.2579 38.4027 42.9297C37.5642 42.6681 36.7398 42.3629 35.933 42.0154C31.5843 40.1385 28.7427 35.7613 28.5262 35.4726C28.3096 35.1838 26.7565 33.1232 26.7565 30.9904C26.7565 28.8576 27.8765 27.8076 28.2746 27.3744C28.6705 26.9413 29.1408 26.8319 29.4296 26.8319C29.7183 26.8319 30.0071 26.8341 30.2608 26.8472C30.5277 26.8604 30.8843 26.7466 31.2365 27.591C31.5974 28.4594 32.4637 30.5922 32.573 30.8088C32.6802 31.0254 32.7524 31.2791 32.608 31.5679C32.4637 31.8566 32.3915 32.0382 32.1749 32.2919C31.9583 32.5435 31.7199 32.8563 31.5252 33.051C31.3087 33.2654 31.0812 33.5016 31.3349 33.9347C31.5887 34.3679 32.4571 35.7876 33.7455 36.936C35.4015 38.4126 36.7993 38.8697 37.2324 39.0885C37.6655 39.3051 37.9193 39.2679 38.1708 38.9791C38.4246 38.6904 39.2558 37.7147 39.5446 37.2794C39.8333 36.8463 40.1221 36.9185 40.5202 37.0629C40.9162 37.2072 43.049 38.2551 43.4821 38.4738C43.9152 38.6904 44.204 38.7976 44.3133 38.9791C44.4205 39.1607 44.4205 40.0269 44.0596 41.0397ZM35.5787 20.4291C27.6249 20.4291 21.1543 26.8954 21.1521 34.8426C21.1521 37.566 21.9134 40.2194 23.3571 42.5141L23.7005 43.0588L22.2437 48.3788L27.7015 46.9482L28.2265 47.2588C30.4479 48.5759 32.983 49.2703 35.5655 49.2691H35.5721C43.5193 49.2691 49.9877 42.8029 49.9921 34.8535C49.9979 32.9591 49.6279 31.0823 48.9036 29.3318C48.1793 27.5813 47.115 25.9919 45.7724 24.6554C44.4371 23.3119 42.8486 22.2467 41.0988 21.5213C39.3491 20.7958 37.4728 20.4246 35.5787 20.4291Z" fill="#67D449"/>
<path fill-rule="evenodd" clip-rule="evenodd" d="M35.5722 52.1981H35.5656C32.6606 52.1981 29.8081 51.4697 27.275 50.0872L18.0766 52.5L20.5397 43.5116C19.018 40.8753 18.2189 37.8842 18.2231 34.8403C18.2275 25.2788 26.0084 17.5 35.5722 17.5C37.8525 17.4933 40.1115 17.9394 42.2181 18.8125C44.3247 19.6855 46.237 20.9682 47.8441 22.5859C49.4597 24.1937 50.7403 26.1061 51.6118 28.2122C52.4833 30.3183 52.9284 32.5763 52.9213 34.8556C52.9169 44.4172 45.1338 52.1981 35.5722 52.1981ZM35.5 0C16.1691 0 0.5 15.6691 0.5 35C0.5 54.3288 16.1691 70 35.5 70C54.8288 70 70.5 54.3288 70.5 35C70.5 15.6691 54.8288 0 35.5 0Z" fill="#67D449"/>
</g>
<defs>
<clipPath id="clip0_427_12446">
<rect width="70" height="70" fill="white" transform="translate(0.5)"/>
</clipPath>
</defs>
</svg>
