<svg width="49" height="49" viewBox="0 0 49 49" fill="none" xmlns="http://www.w3.org/2000/svg">
<circle cx="24.7512" cy="24.2488" r="24" fill="white"/>
<path fill-rule="evenodd" clip-rule="evenodd" d="M0.751221 24.2488C0.751221 37.5036 11.4964 48.2488 24.7512 48.2488C38.0061 48.2488 48.7512 37.5036 48.7512 24.2488C48.7512 10.9939 38.0061 0.248779 24.7512 0.248779C11.4964 0.248779 0.751221 10.9939 0.751221 24.2488ZM39.8134 23.3303C39.8102 31.197 33.4107 37.5981 25.5423 37.6013H25.5364C23.1479 37.6005 20.801 37.0012 18.7166 35.8642L11.1512 37.8488L13.1758 30.4536C11.927 28.2893 11.2698 25.8343 11.2709 23.319C11.274 15.4505 17.676 9.04878 25.5422 9.04878C29.3599 9.05043 32.943 10.5366 35.6374 13.2342C38.3318 15.9316 39.8149 19.5171 39.8134 23.3303Z" fill="#67D449"/>
<path fill-rule="evenodd" clip-rule="evenodd" d="M14.5777 34.4583L19.0671 33.2807L19.5002 33.5377C21.3214 34.6185 23.409 35.1903 25.5375 35.1911H25.5423C32.0801 35.1911 37.4012 29.8699 37.4038 23.3295C37.405 20.16 36.1724 17.1799 33.9329 14.9378C31.6934 12.6957 28.7152 11.4603 25.547 11.4592C19.0042 11.4592 13.683 16.7799 13.6804 23.3199C13.6795 25.5612 14.3066 27.7439 15.494 29.6324L15.776 30.0812L14.5777 34.4583ZM32.2437 26.4028C32.4924 26.523 32.6603 26.6042 32.732 26.7239C32.8211 26.8726 32.8211 27.5866 32.5241 28.4196C32.2269 29.2526 30.8023 30.0128 30.1171 30.1151C29.5028 30.207 28.7254 30.2453 27.8712 29.9738C27.3533 29.8095 26.6891 29.5901 25.8384 29.2227C22.4954 27.7792 20.2363 24.5392 19.8093 23.9268C19.7794 23.8839 19.7585 23.8539 19.7468 23.8383L19.7439 23.8345C19.5552 23.5827 18.2908 21.8956 18.2908 20.1496C18.2908 18.507 19.0976 17.6461 19.469 17.2498C19.4944 17.2227 19.5178 17.1977 19.5388 17.1748C19.8656 16.8178 20.252 16.7285 20.4897 16.7285C20.7274 16.7285 20.9654 16.7307 21.1731 16.7412C21.1988 16.7425 21.2254 16.7423 21.253 16.7421C21.4608 16.7409 21.7199 16.7394 21.9754 17.3533C22.0737 17.5895 22.2176 17.9397 22.3693 18.3091C22.6762 19.0562 23.0152 19.8816 23.0748 20.001C23.164 20.1795 23.2234 20.3877 23.1046 20.6257C23.0867 20.6614 23.0702 20.6951 23.0545 20.7273C22.9652 20.9096 22.8995 21.0437 22.748 21.2206C22.6884 21.2901 22.6268 21.3651 22.5653 21.4401C22.4426 21.5895 22.3199 21.7389 22.2131 21.8453C22.0346 22.0231 21.8488 22.216 22.0568 22.573C22.2648 22.93 22.9804 24.0977 24.0405 25.0433C25.18 26.0597 26.1704 26.4893 26.6724 26.707C26.7704 26.7496 26.8499 26.784 26.9081 26.8132C27.2646 26.9917 27.4726 26.9618 27.6806 26.7239C27.8886 26.4859 28.572 25.6827 28.8097 25.3257C29.0474 24.9689 29.2852 25.0283 29.612 25.1472C29.9389 25.2664 31.6921 26.1289 32.0486 26.3074C32.1182 26.3422 32.1833 26.3737 32.2437 26.4028Z" fill="#67D449"/>
</svg>
