<svg width="49" height="49" viewBox="0 0 49 49" fill="none" xmlns="http://www.w3.org/2000/svg">
<path fill-rule="evenodd" clip-rule="evenodd" d="M0.5 24.5C0.5 37.7548 11.2452 48.5 24.5 48.5C37.7548 48.5 48.5 37.7548 48.5 24.5C48.5 11.2452 37.7548 0.5 24.5 0.5C11.2452 0.5 0.5 11.2452 0.5 24.5ZM39.5621 23.5815C39.559 31.4483 33.1595 37.8493 25.2911 37.8525H25.2852C22.8967 37.8517 20.5498 37.2524 18.4653 36.1155L10.9 38.1L12.9246 30.7048C11.6757 28.5405 11.0186 26.0855 11.0196 23.5702C11.0228 15.7017 17.4248 9.3 25.2909 9.3C29.1086 9.30165 32.6918 10.7879 35.3862 13.4854C38.0806 16.1828 39.5637 19.7683 39.5621 23.5815Z" fill="#67D449"/>
<path fill-rule="evenodd" clip-rule="evenodd" d="M14.3265 34.7096L18.8159 33.5319L19.249 33.789C21.0702 34.8697 23.1578 35.4415 25.2863 35.4424H25.2911C31.8289 35.4424 37.1499 30.1212 37.1526 23.5807C37.1538 20.4112 35.9212 17.4311 33.6817 15.189C31.4422 12.9469 28.464 11.7115 25.2958 11.7104C18.7529 11.7104 13.4318 17.0311 13.4292 23.5711C13.4283 25.8124 14.0554 27.9951 15.2428 29.8836L15.5248 30.3324L14.3265 34.7096ZM31.9924 26.6541C32.2411 26.7743 32.4091 26.8554 32.4808 26.9751C32.5699 27.1238 32.5699 27.8378 32.2729 28.6709C31.9756 29.5038 30.5511 30.264 29.8659 30.3663C29.2516 30.4582 28.4742 30.4965 27.62 30.225C27.102 30.0607 26.4379 29.8413 25.5871 29.4739C22.2442 28.0304 19.985 24.7904 19.5581 24.178C19.5282 24.1351 19.5072 24.1051 19.4956 24.0896L19.4927 24.0857C19.304 23.8339 18.0395 22.1468 18.0395 20.4008C18.0395 18.7583 18.8464 17.8973 19.2178 17.501C19.2432 17.4739 19.2666 17.4489 19.2876 17.426C19.6144 17.069 20.0008 16.9798 20.2385 16.9798C20.4762 16.9798 20.7141 16.982 20.9219 16.9924C20.9475 16.9937 20.9742 16.9935 21.0018 16.9934C21.2096 16.9921 21.4686 16.9906 21.7242 17.6045C21.8225 17.8408 21.9664 18.191 22.1181 18.5603C22.4249 19.3074 22.764 20.1328 22.8236 20.2522C22.9128 20.4307 22.9722 20.6389 22.8533 20.877C22.8355 20.9127 22.819 20.9464 22.8032 20.9785C22.714 21.1608 22.6483 21.2949 22.4968 21.4718C22.4372 21.5414 22.3756 21.6164 22.314 21.6913C22.1914 21.8407 22.0687 21.9901 21.9619 22.0965C21.7834 22.2743 21.5975 22.4673 21.8055 22.8243C22.0135 23.1813 22.7292 24.3489 23.7893 25.2945C24.9288 26.3109 25.9192 26.7405 26.4212 26.9583C26.5192 27.0008 26.5986 27.0352 26.6569 27.0644C27.0133 27.2429 27.2214 27.2131 27.4294 26.9751C27.6374 26.7372 28.3208 25.9339 28.5585 25.5769C28.7961 25.2201 29.034 25.2795 29.3608 25.3985C29.6877 25.5176 31.4408 26.3801 31.7974 26.5586C31.867 26.5935 31.9321 26.6249 31.9924 26.6541Z" fill="#67D449"/>
</svg>
